<svg width="180" height="180" viewBox="0 0 180 180" preserveAspectRatio="xMidYMid slice" xmlns="http://www.w3.org/2000/svg">
  <g fill="none" fill-rule="evenodd">
    <path d="M146.554341 100.5H-.6926214" stroke="#C1F2F4" stroke-width="3.88125"></path>
    <path fill="#C1F2F4" fill-rule="nonzero" d="M123.150707 99.316549h-15.7903904V25.9604952h15.7903904zm-30.7850475 0H76.5752691V25.9604952h15.7903904zm-40.2465992-.0703864H36.3286699V40.6129787h15.7903904z"></path>
    <path fill="#B0EAEA" fill-rule="nonzero" d="M134.36059 99.2461627h-11.2603604V40.6129788H134.36059zm-68.73383242-.23327083L53.9735271 97.30035924 65.80374103 16.7995808l11.65323047 1.7125326zm41.84965752.30598227H91.6860247v-88.8538117h15.7903904zm-70.4586624-.05346824H26.2751101V28.1048678h10.7426426z"></path>
    <path d="M107.466967 17.232287H91.6765766m15.7903904 3.4869955H91.6765766" stroke="#C1F2F4" stroke-width=".646875"></path>
    <path d="M52.0711712 45.3865471h-15.660961m15.660961 3.6161435h-15.660961m15.660961 3.6161435h-15.660961m15.660961 3.6161435h-15.660961m15.660961 3.7452915h-15.660961m15.660961 3.6161435h-15.660961m15.660961 3.6161435h-15.660961m15.660961 3.6161435h-15.660961m15.660961 3.7452914h-15.660961m15.660961 3.6161435h-15.660961m15.660961 3.6161435h-15.660961m15.660961 3.7452915h-15.660961m15.660961 3.6161435h-15.660961m15.660961 3.6161435h-15.660961" stroke="#B0EAEA" stroke-width=".646875"></path>
    <path d="M107.466967 88.2636771H91.6765766m15.7903904 3.3578476H91.6765766" stroke="#C1F2F4" stroke-width=".646875"></path>
    <path d="M115.362162 91.6215247c1.423724 0 2.718018-1.1623319 2.718018-2.7121077V36.2170404c0-1.4206278-1.164865-2.7121077-2.718018-2.7121077-1.423724 0-2.718018 1.1623319-2.718018 2.7121077V89.038565c0 1.4206278 1.164865 2.5829597 2.718018 2.5829597z" stroke="#B0EAEA" stroke-width=".646875"></path>
    <path fill="#C1F2F4" fill-rule="nonzero" d="M26.4948799 99.316549H10.7044895V25.9604952h15.7903904z"></path>
    <path d="M18.5489489 91.6215247c1.4237238 0 2.7180181-1.1623319 2.7180181-2.7121077V36.2170404c0-1.4206278-1.1648649-2.7121077-2.7180181-2.7121077-1.4237237 0-2.718018 1.1623319-2.718018 2.7121077V89.038565c0 1.4206278 1.2942943 2.5829597 2.718018 2.5829597z" stroke="#B0EAEA" stroke-width=".646875"></path>
    <path d="M128.822823 49.0026906v41.3273542" stroke="#C1F2F4" stroke-width=".646875"></path>
    <path fill="#19A1F4" fill-rule="nonzero" d="M169.17888332 180.0493494h-65.8666667v-12.16h65.8666667z"></path>
    <path fill="#0D2451" fill-rule="nonzero" d="M180.195191 167.8803369h-65.8666667v-12.16h65.8666667z"></path>
    <path d="M114.2666667 155.8114286h65.8666666V160.48c-2.0583333-.5428571-5.3083333-1.1942857-9.2083333-1.3028571-10.5083333-.3257143-12.4583333 3.5828571-20.9083333 3.9085714-11.2666667.5428571-13.65-6.1885714-25.2416667-4.56-4.55.6514286-8.2333333 2.1714286-10.6166667 3.3657143.1083334-2.0628572.1083334-4.1257143.1083334-6.08z" fill="#071D3F" fill-rule="nonzero"></path>
    <path fill="#FFC871" fill-rule="nonzero" d="M175.97604099 155.85214317h-65.8666667v-12.16h65.8666667z"></path>
    <path d="M116.7583333 152.66285714H169.3c1.4083333 0 2.4916667-1.08571428 2.4916667-2.49714285v-.76c0-1.41142858-1.0833334-2.49714286-2.4916667-2.49714286h-52.5416667c-1.4083333 0-2.4916666 1.08571428-2.4916666 2.49714286v.76c0 1.30285714 1.1916666 2.49714285 2.4916666 2.49714285z" stroke="#F5A73B" stroke-width=".54143888"></path>
    <path d="M159.0083333 167.9714286v12.16m1.8416667-12.16v12.16m-50.91666667-12.16v12.16m1.84166667-12.16v12.16" stroke="#1490ED" stroke-width=".54143888"></path>
    <path d="M104.7295186 179.9239631c8.203125 0 14.5217483-7.0075576 13.745777-15.000553l-1.7736486-17.62838706H92.86824324l-1.77364865 17.62838706c-.88682432 7.9929954 5.43179901 15.000553 13.63492401 15.000553z" fill="#F46C69" fill-rule="nonzero"></path>
    <path d="M97.9674831 153.20764977H86.99303209c-1.44108952 0-2.66047297 1.20442396-2.66047297 2.6278341v9.30691243c0 4.1607373 3.43644426 7.5550231 7.6488598 7.5550231h5.98606418" stroke="#EA5959" stroke-width=".5372551"></path>
    <path d="M104.7295186 179.9239631c-8.203125 0-14.52174833-7.0075576-13.74577705-15.000553l1.55194257-15.00055296c2.77132598.32847927 6.54032938 1.31391705 8.53568408 4.27023042 3.6581504 5.25566824-1.7736486 12.26322584 1.3302365 16.64294934 1.4410896 1.9708755 4.7666808 3.832258 13.8566301 2.6278341-.8868243 1.313917-3.2147382 4.3797235-7.4271537 5.6936405-1.2193835.5474655-2.660473.7664516-4.1015625.7664516z" fill="#EA5959" fill-rule="nonzero"></path>
    <g transform="translate(9 74)">
      <path d="M16.6833333.41153846c4.6878788 0 8.6863637 3.42948718 9.3757576 8.09358975l1.6545455 10.97435899H5.79090909L7.44545455 8.50512821C7.9969697 3.84102564 11.9954545.41153846 16.6833333.41153846z" fill="#19A1F4" fill-rule="nonzero"></path>
      <path fill="#19A1F4" fill-rule="nonzero" d="M79.4632691 19.51885704H16.5905418V.45090834h62.8727273z"></path>
      <path d="M79.4181818.41153846c4.6878788 0 8.6863637 3.42948718 9.3757576 8.09358975l1.6545454 10.97435899H68.5257576L70.180303 8.50512821c.5515152-4.66410257 4.55-8.09358975 9.2378788-8.09358975z" fill="#1490ED" fill-rule="nonzero"></path>
      <path d="M63.8378788 10.0141026H.82727273" stroke="#F5A73B" stroke-width=".68710311" stroke-linecap="round"></path>
      <path d="M79.4181818 10.0141026h-15.580303" stroke="#FFD385" stroke-width=".68710311" stroke-linecap="round"></path>
      <path d="M35.5727273 10.0141026v90.2641024" stroke="#F5A73B" stroke-width=".68710311" stroke-linecap="round"></path>
      <path fill="#FFD385" fill-rule="nonzero" d="M60.7488431 105.661677H10.4230855v-5.35h50.3257576z"></path>
      <path d="M53.0833333 97.2602564H17.9242424" stroke="#F5A73B" stroke-width=".68710311" stroke-linecap="round"></path>
      <path d="M79.4181818 19.4794872v22.4974359" stroke="#FFD385" stroke-width=".68710311" stroke-linecap="round"></path>
      <ellipse fill="#FFD385" fill-rule="nonzero" cx="79.4181818" cy="43.8974359" rx="2.34393939" ry="2.33205128"></ellipse>
    </g>
  </g>
</svg>