<svg width="540" height="300" viewBox="0 0 540 300" xmlns="http://www.w3.org/2000/svg">
  <g transform="translate(4 45)" fill="none" fill-rule="evenodd">
    <path d="M0 176.100448h532" stroke="#C1F2F4" stroke-width="3.45"></path>
    <path fill="#C1F2F4" fill-rule="nonzero" d="M75.1464367 109.0582958h14.0181425v65.2053812H75.1464367zm27.3468683 0h14.0181425v65.2053812H102.493305zm35.734773 13.0869955h14.0181425v52.1183857H138.228078z"></path>
    <path fill="#B0EAEA" fill-rule="nonzero" d="M65.1498924 122.1452913h9.99654428v52.1183857H65.1498924zM51.690704 114.544865l13.75145313 3.26332006L51.8441149 175.109595l-13.75145312-3.26332006zm64.92520087-11.12977024l10.34532024-1.52032507 10.5157457 71.55624748-10.34532023 1.52032507zM89.0496765 95.282511h14.0181425v78.9811659H89.0496765z"></path>
    <path d="M89.1645793 101.36681593h13.9032397m-13.9032397 2.98475337h13.9032397" stroke="#C1F2F4" stroke-width=".575"></path>
    <path d="M138.228078 126.2780267h13.90324m-13.90324 3.329148h13.90324m-13.90324 3.2143498h13.90324m-13.90324 3.2143497h13.90324m-13.90324 3.2143498h13.90324m-13.90324 3.329148h13.90324m-13.90324 3.2143498h13.90324m-13.90324 3.2143497h13.90324m-13.90324 3.2143498h13.90324m-13.90324 3.329148h13.90324m-13.90324 3.2143498h13.90324m-13.90324 3.2143497h13.90324m-13.90324 3.2143498h13.90324m-13.90324 3.329148h13.90324" stroke="#B0EAEA" stroke-width=".575"></path>
    <path d="M89.1645793 164.5058294h13.9032397m-13.9032397 2.9847533h13.9032397" stroke="#C1F2F4" stroke-width=".575"></path>
    <path d="M82.155508 167.4905827c-1.2639309 0-2.412959-1.0331838-2.412959-2.4107623V118.127354c0-1.2627802 1.0341253-2.4107623 2.412959-2.4107623 1.2639309 0 2.412959 1.0331839 2.412959 2.4107623v46.9524664c0 1.3775785-1.1490281 2.4107623-2.412959 2.4107623z" stroke="#B0EAEA" stroke-width=".575"></path>
    <path d="M70.0907132 129.6071747v36.735426" stroke="#C1F2F4" stroke-width=".575"></path>
    <path fill="#C1F2F4" fill-rule="nonzero" d="M367.9187902 109.0582958h14.0181425v65.2053812h-14.0181425zm27.461771 0h14.0181425v65.2053812h-14.0181425zm35.6198708 13.0869955h14.0181425v52.1183857H431.000432z"></path>
    <path fill="#B0EAEA" fill-rule="nonzero" d="M357.9222459 122.1452913h9.99654428v52.1183857h-9.99654428zm-13.4518346-7.60832457l13.75145312 3.26332006-13.59804223 57.30140995-13.75145312-3.26332006zm64.92418966-11.12924203l10.34532024-1.52032508 10.51574571 71.55624749-10.34532024 1.52032506zM381.9369327 95.282511h14.0181425v78.9811659h-14.0181425z"></path>
    <path d="M381.9369327 101.36681593h14.0181426m-14.0181426 2.98475337h14.0181426" stroke="#C1F2F4" stroke-width=".575"></path>
    <path d="M431.000432 126.2780267h14.018142m-14.018142 3.329148h14.018142m-14.018142 3.2143498h14.018142m-14.018142 3.2143497h14.018142m-14.018142 3.2143498h14.018142m-14.018142 3.329148h14.018142m-14.018142 3.2143498h14.018142m-14.018142 3.2143497h14.018142m-14.018142 3.2143498h14.018142m-14.018142 3.329148h14.018142m-14.018142 3.2143498h14.018142m-14.018142 3.2143497h14.018142m-14.018142 3.2143498h14.018142m-14.018142 3.329148h14.018142" stroke="#B0EAEA" stroke-width=".575"></path>
    <path d="M381.9369327 164.5058294h14.0181426m-14.0181426 2.9847533h14.0181426" stroke="#C1F2F4" stroke-width=".575"></path>
    <path d="M374.9278615 167.4905827c-1.2639309 0-2.412959-1.0331838-2.412959-2.4107623V118.127354c0-1.2627802 1.0341253-2.4107623 2.412959-2.4107623 1.2639308 0 2.4129589 1.0331839 2.4129589 2.4107623v46.9524664c0 1.3775785-1.0341253 2.4107623-2.4129589 2.4107623z" stroke="#B0EAEA" stroke-width=".575"></path>
    <path d="M362.9779694 129.6071747v36.735426" stroke="#C1F2F4" stroke-width=".575"></path>
    <path fill="#C1F2F4" fill-rule="nonzero" d="M188.5555074 109.0582958h14.0181425v65.2053812h-14.0181425zm27.461771 0h14.0181425v65.2053812h-14.0181425zm85.9473006 0h9.76673866v65.2053812H301.964579z"></path>
    <path fill="#C1F2F4" fill-rule="nonzero" d="M311.386609 130.2959639h11.949892v43.8529148h-11.949892zm-59.74946-8.1506726h14.0181425v52.1183857H251.637149z"></path>
    <path fill="#B0EAEA" fill-rule="nonzero" d="M178.5589631 122.1452913h9.99654428v52.1183857h-9.99654428zm-13.456086-7.60567258l13.75145312 3.26332005-13.59804222 57.30140995-13.75145313-3.26332005zm64.9247181-11.12599344l10.34532024-1.52032507 10.51574571 71.55624749-10.34532024 1.52032507zM202.5736499 95.282511h14.0181425v78.9811659h-14.0181425zm62.5071271 15.7273543h9.53693305v63.2538117H265.080777z"></path>
    <path d="M202.5736499 101.36681593h13.9032398m-13.9032398 2.98475337h13.9032398" stroke="#C1F2F4" stroke-width=".575"></path>
    <path d="M251.637149 126.2780267h14.018142m-14.018142 3.329148h14.018142m-14.018142 3.2143498h14.018142m-14.018142 3.2143497h14.018142m-14.018142 3.2143498h14.018142m-14.018142 3.329148h14.018142m-14.018142 3.2143498h14.018142m-14.018142 3.2143497h14.018142m-14.018142 3.2143498h14.018142m-14.018142 3.329148h14.018142m-14.018142 3.2143498h14.018142m-14.018142 3.2143497h14.018142m-14.018142 3.2143498h14.018142m-14.018142 3.329148h14.018142" stroke="#B0EAEA" stroke-width=".575"></path>
    <path d="M202.5736499 164.5058294h13.9032398m-13.9032398 2.9847533h13.9032398" stroke="#C1F2F4" stroke-width=".575"></path>
    <path fill="#B0EAEA" fill-rule="nonzero" d="M288.750756 122.1452913h14.0181425v52.1183857H288.750756zm34.815551 0h14.0181425v52.1183857H323.566307z"></path>
    <path d="M288.750756 126.1632285h13.903239m-13.903239 2.0663677h13.903239m-13.903239 39.6053812h13.903239m-13.903239 1.9515695h13.903239" stroke="#C1F2F4" stroke-width=".575"></path>
    <path d="M195.5645786 167.4905827c-1.2639308 0-2.4129589-1.0331838-2.4129589-2.4107623V118.127354c0-1.2627802 1.0341253-2.4107623 2.4129589-2.4107623 1.2639309 0 2.412959 1.0331839 2.412959 2.4107623v46.9524664c0 1.3775785-1.1490281 2.4107623-2.412959 2.4107623z" stroke="#B0EAEA" stroke-width=".575"></path>
    <path fill="#C1F2F4" fill-rule="nonzero" d="M274.387905 109.0582958h14.0181425v65.2053812H274.387905z"></path>
    <path d="M281.396976 167.4905827c-1.263931 0-2.412959-1.0331838-2.412959-2.4107623V118.127354c0-1.2627802 1.034125-2.4107623 2.412959-2.4107623 1.263931 0 2.412959 1.0331839 2.412959 2.4107623v46.9524664c0 1.3775785-1.034125 2.4107623-2.412959 2.4107623z" stroke="#B0EAEA" stroke-width=".575"></path>
    <path d="M183.6146866 129.6071747v36.735426" stroke="#C1F2F4" stroke-width=".575"></path>
    <path d="M91.462635 81.1623318H408.82419" stroke="#C1F2F4" stroke-width="3.45"></path>
    <path fill="#C1F2F4" fill-rule="nonzero" d="M130.9892007 14.1201794h14.0181425v65.2053812h-14.0181425zm27.4617711 0h14.0181425v65.2053812h-14.0181425zM294.036285 6.42869955h8.61771058v72.896861H294.036285zm-49.638013 7.69147985h9.76673866v65.2053812H244.398272z"></path>
    <path fill="#C1F2F4" fill-rule="nonzero" d="M253.820302 35.4726457h11.949892v43.8529148h-11.949892zm-59.7494598-8.1506726h14.0181425v52.1183857h-14.0181425z"></path>
    <path fill="#B0EAEA" fill-rule="nonzero" d="M120.99265642 27.3219731h9.99654428v52.1183857h-9.99654428zm51.45654442-18.8439845l10.34532024-1.52032507L193.3102668 78.513911l-10.34532023 1.52032507zm149.98897802-1.51741446l10.3390466 1.55692153-10.76887509 71.51285387-10.3390466-1.55692152zM145.0073432.34439462h14.0181425v78.9811659h-14.0181425zm62.5071275 15.72735428h9.53693305v63.2538117h-9.53693305z"></path>
    <path d="M145.0073432 6.42869955h14.0181426m-14.0181426 3.09955157h14.0181426" stroke="#C1F2F4" stroke-width=".575"></path>
    <path d="M194.0708422 31.4547085h14.0181425m-14.0181425 3.2143498h14.0181425m-14.0181425 3.2143498h14.0181425m-14.0181425 3.2143497h14.0181425m-14.0181425 3.329148h14.0181425m-14.0181425 3.2143498h14.0181425m-14.0181425 3.2143498h14.0181425m-14.0181425 3.2143498h14.0181425m-14.0181425 3.3291479h14.0181425m-14.0181425 3.2143498h14.0181425m-14.0181425 3.2143498h14.0181425m-14.0181425 3.329148h14.0181425m-14.0181425 3.2143497h14.0181425m-14.0181425 3.2143498h14.0181425" stroke="#B0EAEA" stroke-width=".575"></path>
    <path fill="#C1F2F4" fill-rule="nonzero" d="M367.91879 27.3219731h14.0181425v52.1183857H367.91879z"></path>
    <path d="M367.91879 31.4547085h14.018143m-14.018143 3.2143498h14.018143m-14.018143 3.2143498h14.018143m-14.018143 3.2143497h14.018143m-14.018143 3.329148h14.018143m-14.018143 3.2143498h14.018143m-14.018143 3.2143498h14.018143m-14.018143 3.2143498h14.018143m-14.018143 3.3291479h14.018143m-14.018143 3.2143498h14.018143m-14.018143 3.2143498h14.018143m-14.018143 3.329148h14.018143m-14.018143 3.2143497h14.018143m-14.018143 3.2143498h14.018143" stroke="#B0EAEA" stroke-width=".575"></path>
    <path d="M145.0073432 69.567713h14.0181426m-14.0181426 2.9847534h14.0181426" stroke="#C1F2F4" stroke-width=".575"></path>
    <path fill="#B0EAEA" fill-rule="nonzero" d="M231.184449 27.3219731h14.0181425v52.1183857H231.184449zm34.815551 0h14.0181425v52.1183857H266z"></path>
    <path d="M231.184449 31.3399103h13.90324m-13.90324 1.9515695h13.90324m-13.90324 39.6053812h13.90324m-13.90324 2.0663677h13.90324" stroke="#C1F2F4" stroke-width=".575"></path>
    <path d="M137.998272 72.5524664c-1.2639309 0-2.412959-1.0331839-2.412959-2.4107624V23.3040359c0-1.2627803 1.0341253-2.4107624 2.412959-2.4107624 1.2639309 0 2.4129589 1.0331839 2.4129589 2.4107624v46.9524663c0 1.2627803-1.0341252 2.2959642-2.4129589 2.2959642z" stroke="#B0EAEA" stroke-width=".575"></path>
    <path fill="#C1F2F4" fill-rule="nonzero" d="M216.9365009 14.1201794h14.0181425v65.2053812h-14.0181425z"></path>
    <path d="M223.830669 72.5524664c-1.263931 0-2.412959-1.0331839-2.412959-2.4107624V23.3040359c0-1.2627803 1.034126-2.4107624 2.412959-2.4107624 1.263931 0 2.412959 1.0331839 2.412959 2.4107624v46.9524663c0 1.2627803-1.034125 2.2959642-2.412959 2.2959642z" stroke="#B0EAEA" stroke-width=".575"></path>
    <path fill="#B0EAEA" fill-rule="nonzero" d="M280.133045 14.1201794h14.0181425v65.2053812H280.133045z"></path>
    <path d="M287.142116 72.5524664c-1.26393 0-2.412958-1.0331839-2.412958-2.4107624V23.3040359c0-1.2627803 1.034125-2.4107624 2.412958-2.4107624 1.263931 0 2.412959 1.0331839 2.412959 2.4107624v46.9524663c0 1.2627803-1.149028 2.2959642-2.412959 2.2959642zM126.04837997 34.6690583v36.735426" stroke="#C1F2F4" stroke-width=".575"></path>
    <path fill="#C1F2F4" fill-rule="nonzero" d="M340.571922 14.1201794h14.0181425v65.2053812H340.571922z"></path>
    <path fill="#B0EAEA" fill-rule="nonzero" d="M330.575378 27.3219731h9.99654428v52.1183857H330.575378zM354.475162.34439462h14.0181425v78.9811659H354.475162z"></path>
    <path d="M354.590065 6.42869955h13.903239m-13.903239 3.09955157h13.903239M354.590065 69.567713h13.903239m-13.903239 2.9847534h13.903239" stroke="#C1F2F4" stroke-width=".575"></path>
    <path d="M347.580993 72.5524664c-1.263931 0-2.412959-1.0331839-2.412959-2.4107624V23.3040359c0-1.2627803 1.034126-2.4107624 2.412959-2.4107624 1.263931 0 2.412959 1.0331839 2.412959 2.4107624v46.9524663c-.114902 1.2627803-1.149028 2.2959642-2.412959 2.2959642z" stroke="#B0EAEA" stroke-width=".575"></path>
    <path d="M335.516199 34.6690583v36.735426" stroke="#C1F2F4" stroke-width=".575"></path>
    <path fill="#B0EAEA" fill-rule="nonzero" d="M302.079481 27.3219731h9.99654428v52.1183857H302.079481z"></path>
    <path d="M307.135205 34.6690583v36.735426" stroke="#C1F2F4" stroke-width=".575"></path>
    <path d="M171.549892 179.085202H74.4570194c-17.2354211 0-31.1386609 13.890583-31.1386609 31.110314v44.656502H202.688553v-44.656502c0-17.104933-14.018143-31.110314-31.138661-31.110314z" fill="#FFD385" fill-rule="nonzero"></path>
    <path d="M181.546436 183.791928c-2.642764-8.95426-8.962419-16.301345-17.350324-20.548879-10.915766-5.625112-25.048812-18.482511-20.912311-47.296861l-9.996544-6.543497s-4.481209 26.747982-38.9520518 40.064574C83.5343413 153.6 74.6868251 161.635874 69.5161987 171.967713c-9.6518358 18.941704-23.0954644 50.281614-26.1978402 82.884305h29.0704104l-2.8725702-8.609866 16.7758099-33.061883c-1.4937365 8.495067-2.4129589 18.712108-2.1831533 30.07713.1149028 4.017937.3447084 7.806278.8043196 11.479821H190.393952c0 .114798 2.642765-32.0287-8.847516-70.945292z" fill="#2FCFB3" fill-rule="nonzero"></path>
    <path d="M338.733477 111.469058s2.757668 9.413453 19.763283 14.464574l-18.499352 20.204485s1.953348-16.875337-8.962419-26.28879l7.698488-8.380269z" fill="#8E4300" fill-rule="nonzero"></path>
    <path d="M338.04406 130.295964c1.723543-6.658296 3.561988-10.791031 4.711016-12.972197-3.217279-3.21435-4.021599-5.854709-4.021599-5.854709l-6.894168 7.461884-.80432.918385c3.561987 3.099552 5.745141 6.773095 7.009071 10.446637z" fill="#7F3900" fill-rule="nonzero"></path>
    <path d="M156.152916 158.07713c-1.034126 1.95157-2.183154 3.788341-3.332182 5.510314-4.366306 6.543498-11.834989 10.446637-19.763283 10.446637-6.664362 0-12.984017-2.640359-17.695032-7.576682-5.974946-6.199103-12.869114-11.824215-17.6950324-15.38296 0 0-1.2639309-.918385-2.6427646-1.951569" stroke="#13BA9A" stroke-width=".575"></path>
    <path d="M148.109719 160.373094c1.378834-1.951569 2.642765-4.132735 3.906696-6.658296-6.664363-7.69148-11.375378-19.515695-8.732614-37.883408l-9.996544-6.543498s-3.906695 23.07444-32.057883 36.965023c5.055723 3.788341 12.179697 9.528251 18.384449 16.071749 8.158099 8.609865 21.946436 7.806278 28.495896-1.95157z" fill="#B17400" fill-rule="nonzero"></path>
    <path d="M149.258747 150.156054c-5.055723-7.69148-8.273002-18.59731-5.974946-34.209866l-9.996544-6.543497s-.80432 4.821524-4.366307 11.365022c1.723542.688789 4.596113 2.066368 6.664363 4.936323 4.021598 5.280717 1.838445 10.676233 5.400432 16.875336 1.149028 2.066368 3.447084 5.051121 8.273002 7.576682z" fill="#A36400" fill-rule="nonzero"></path>
    <path d="M173.733045 94.2493274c4.136501-11.5946189-1.493736-24.452018-13.09892-29.1587444-10.685961-4.2475337-22.635853 0-28.26609 9.6430493 0 0-20.797409 31.3399107 9.536933 51.3147977 2.87257 1.95157 6.664362 1.836772 9.536933-.114798 5.860043-4.017937 15.626782-13.086995 22.291144-31.6843046z" fill="#B17400" fill-rule="nonzero"></path>
    <path d="M302.883801 97.2340807c-3.791792-10.561435 1.378834-22.270852 11.834989-26.4035874 9.651836-3.903139 20.567603 0 25.738229 8.7246637 0 0 18.844061 28.469955-8.61771 46.608072-2.642765 1.721973-6.089849 1.607175-8.617711-.114799-5.400432-3.78834-14.362851-11.939013-20.337797-28.8143493z" fill="#8E4300" fill-rule="nonzero"></path>
    <path d="M159.140389 100.792825s-.344709 6.658296-3.791793 14.120179l-5.630237-2.295964" stroke="#A36400" stroke-width=".8625" stroke-linecap="round" stroke-linejoin="round"></path>
    <ellipse fill="#0D2451" fill-rule="nonzero" transform="rotate(-48.186 150.210752 101.984947)" cx="150.210752" cy="101.984947" rx="1.37880679" ry="1"></ellipse>
    <path d="M148.109719 85.1802691c8.732614 8.0358744 17.350324 11.135426 24.704104 11.5946188.344708-.8035875.689417-1.7219731.919222-2.5255605.919223-2.4107624 1.263931-4.9363229 1.378834-7.3470852l-27.00216-1.7219731z" fill="#A36400" fill-rule="nonzero"></path>
    <ellipse fill="#0D2451" fill-rule="nonzero" transform="rotate(-48.186 162.594919 106.848798)" cx="162.594919" cy="106.848798" rx="1.37880679" ry="1"></ellipse>
    <path d="M149.258747 112.61704l6.319655 2.525561c0 .114798-4.825918 3.673542-6.319655-2.525561z" fill="#A36400" fill-rule="nonzero"></path>
    <path d="M144.088121 116.060987l7.928294 5.165919c0 .114798-7.35378 3.21435-7.928294-5.165919z" fill="#FFF" fill-rule="nonzero"></path>
    <path d="M216.247084 68.993722c-1.034125-8.4950673-12.524406-14.0053812-25.623326-12.2834081-1.034125.1147982-1.953348.3443946-2.987473.4591928-18.84406 2.755157-36.42419-5.8547085-43.433261-9.9874439-.459611-.3443946-1.034126-.6887893-1.60864-1.0331839l-1.723542-1.0331838c-7.813391-4.2475337-17.924838-5.6251121-20.912311-.8035875-2.298056 3.7883408-.919222 10.2170404 3.102376 15.3829597l.114903.1147982c.574514.8035874 1.263931 1.6071749 2.06825 2.2959641 5.170627 6.4286995.459612 8.0358744-1.838444 8.2654708-4.366307.3443947-8.273003 1.6071749-9.192225 3.9031391-1.263931 3.0995515 2.642765 7.5766816 7.238877 10.9058296 2.183153 2.0663677 4.825918 5.6251121 4.366307 10.2170403-.80432 7.5766816 2.06825 14.0053816 2.06825 14.0053816 17.695032-8.609866 20.4527-24.3372201 20.4527-24.3372201 21.486825 10.5614349 51.246652 1.2627802 51.246652 1.2627802 10.341253-2.6403587 17.58013-9.8726457 16.660907-17.3345291z" fill="#0D2451" fill-rule="nonzero"></path>
    <path d="M138.457883 85.8690583c-5.170626-2.4107623-9.996544-5.8547085-9.42203-9.1838565.459611-2.5255605 4.021598-4.4771301 8.273002-5.7399103 2.183154-.8035875 6.434558-3.2143498.114903-8.4950673-.919222-.573991-1.723542-1.147982-2.412959-1.8367713h-.114903c-4.94082-4.2475336-7.698488-10.3318386-6.089848-14.464574.689416-1.8367713 2.412958-3.2143498 4.711015-3.903139-5.860044-1.6071749-11.490281-1.2627803-13.673434 2.0663677-2.298057 3.7883408-.919223 10.2170404 3.102375 15.3829597l.114903.1147982c.574514.8035874 1.263931 1.6071749 2.068251 2.2959641 5.170626 6.4286995.459611 8.0358744-1.838445 8.2654708-4.366307.3443947-8.273002 1.6071749-9.192225 3.9031391-1.263931 3.0995515 2.642765 7.5766816 7.238877 10.9058296 2.183153 2.0663677 4.825918 5.6251121 4.366307 10.2170403-.80432 7.5766816 2.06825 14.0053816 2.06825 14.0053816 8.962419-4.362332 14.133046-10.5614354 17.005616-15.6125565-1.034125-3.903139-4.021598-6.4286995-6.319655-7.9210762z" fill="#071D3F" fill-rule="nonzero"></path>
    <path d="M77.6742981 196.304933l1.149028 31.569506 7.4686825-14.69417c-1.4937365 8.495067-2.4129589 18.712108-2.1831533 30.07713.1149028 4.017937.3447084 7.806278.8043196 11.479821h14.2479482c.9192229-3.099552 1.8384449-7.921077 1.1490279-13.546189-1.0341251-8.26547-4.9408205-12.283408-6.8941683-17.449327-2.1831533-5.854708-2.7576674-15.38296 5.7451404-30.651121-7.1239741 1.147982-14.362851 2.181166-21.486825 3.21435z" fill="#13BA9A" fill-rule="nonzero"></path>
    <path d="M77.6742981 186.202691c-.9192225 1.377578-2.8725702 7.00269-3.5619871 8.380269-4.8259179 9.413453-15.0522678-.918386-19.9930885 13.201793-5.0557236 14.349776-9.1922247 30.536323-10.800864 46.952467h29.0704104c2.5278618-10.102242 7.4686825-22.156054 12.524406-33.176682 8.0431966-17.449327-4.7110151-29.043946-4.7110151-29.043946l-2.5278617-6.313901z" fill="#B17400" fill-rule="nonzero"></path>
    <path d="M86.9814255 215.361435l-15.9714903-17.219731c-5.2855292 2.869955-12.8691145-1.836771-16.8907127 9.757848-3.3321815 9.413452-6.2047517 19.630493-8.2730022 30.191928 2.412959-8.609866 9.1922246-15.153363 17.5801296-16.990135 10.5710583-2.410762 18.6142549 3.673543 19.7632829 4.591929.5745141-1.262781 1.1490281-2.640359 1.7235421-3.903139.9192225-2.295965 1.6086394-4.362332 2.0682506-6.4287z" fill="#A36400" fill-rule="nonzero"></path>
    <path d="M84.9131749 221.675336c8.0431966-17.449327 16.4311011-32.258296 16.4311011-32.258296l-29.3002155-21.696861c-.9192225 1.377579-1.7235421 2.755157-2.412959 4.247534-4.8259179 9.413453-10.4561555 21.811659-15.3969762 35.931839 5.7451404 4.017937 16.0863931 10.102242 30.6790496 13.775784z" fill="#2FCFB3" fill-rule="nonzero"></path>
    <path d="M186.946868 206.981166c-14.937365 8.150673-20.567602-7.461883-20.567602-7.461883l2.987473 14.464574 10.571058 9.069058 7.009071-16.071749z" fill="#13BA9A" fill-rule="nonzero"></path>
    <path fill="#1490ED" fill-rule="nonzero" d="M344.593521 194.123767h-57.106696l-15.511879 34.55426h56.991793z"></path>
    <path d="M186.946868 206.981166c-8.61771 7.232287-17.465227 7.117489-17.465227 7.117489l6.319655 40.753363h14.592656s1.60864-20.089686-3.447084-47.870852z" fill="#B17400" fill-rule="nonzero"></path>
    <path d="M187.636285 210.654709c-.229806-1.262781-.459611-2.410763-.574514-3.673543-8.617711 7.232287-17.465227 7.117489-17.465227 7.117489l6.204752 40.753363-.459611-22.270852c-.114903-8.95426 4.596112-17.334529 12.2946-21.926457z" fill="#A36400" fill-rule="nonzero"></path>
    <path d="M54.1192225 207.899552c3.1023758 2.181165 7.5835853 4.936322 13.3287257 7.576681 6.3196544-6.199103 2.7576674-12.857399-1.0341253-19.86009-3.3321814-6.084304.4596112-17.334529 1.4937365-20.43408-4.3663067 8.839462-9.4220302 20.089686-13.7883369 32.717489z" fill="#13BA9A" fill-rule="nonzero"></path>
    <path d="M180.0527 254.852018s19.418574-75.078027 35.734773-105.155157l2.527862 8.495067s-6.089849 63.942601-12.409503 96.430494l-25.853132.229596z" fill="#B17400" fill-rule="nonzero"></path>
    <path fill="#B17400" fill-rule="nonzero" d="M215.787473 149.696861l4.366307-5.73991 1.838445 4.247533-5.745141 6.658296z"></path>
    <path d="M56.3023758 201.815247s17.4652268 11.939013 31.3684665 13.775784" stroke="#13BA9A" stroke-width=".575" stroke-linecap="round"></path>
    <path d="M185.912743 201.470852s-9.192225 7.69148-17.695032 6.658296" stroke="#13BA9A" stroke-width=".575"></path>
    <path d="M221.0730017 153.1408076c.22980561-.2295964.34470842-.4591928.45961123-.6887892l7.92829377-23.8780269c.3447084-1.03318385-.2298057-2.18116592-1.2639309-2.52556054-1.0341253-.34439461-2.1831534.22959642-2.5278618 1.26278027l-7.92829373 23.87802687c-.34470842 1.0331839.22980562 2.181166 1.26393089 2.5255606.80431965.2295964 1.4937365 0 2.06825054-.5739911z" fill="#B17400" fill-rule="nonzero"></path>
    <path d="M221.0730017 153.1408076c.11490281-.1147982.22980561-.2295964.22980561-.3443946l18.84406049-29.96233181c.574514-.91838565.3447084-2.18116592-.5745141-2.75515695-.9192224-.57399103-2.1831533-.34439462-2.7576673.57399103l-18.84406051 29.96233183c-.57451404.9183857-.34470843 2.1811659.57451404 2.755157.80431965.6887892 1.83844492.4591928 2.52786177-.2295965z" fill="#B17400" fill-rule="nonzero"></path>
    <path d="M221.0730017 153.1408076l24.5892009-25.48520175c.8043196-.80358744.6894168-2.06636771 0-2.75515695-.8043197-.80358744-2.0682506-.68878924-2.7576674 0l-24.58920089 25.4852018c-.80431965.8035874-.68941685 2.0663677 0 2.7551569.68941685.9183857 1.95334773.8035875 2.75766739 0z" fill="#B17400" fill-rule="nonzero"></path>
    <path d="M218.2004315 150.5004489c5.28552916-5.5103139 14.1330454-5.7399103 19.6483801-.3443946 2.5278618 2.5255605 4.1365011 5.8547085 4.2514039 9.4134529 0 1.0331839-.8043196 2.0663677-1.8384449 2.0663677s-2.0682505-.8035874-2.0682505-1.8367713c-.1149029-2.5255605-1.1490281-4.9363229-3.1023759-6.7730942-4.0215982-3.7883408-10.3412527-3.6735426-14.13304531.2295965l-2.75766739-2.755157z" fill="#B17400" fill-rule="nonzero"></path>
    <path fill="#F5A73B" fill-rule="nonzero" d="M220.43518183 138.3805043l5.03903966-.41123656 3.38027526 41.4198127-5.03903966.41123655z"></path>
    <path fill="#FFFAF5" fill-rule="nonzero" d="M220.3035057 136.0145261l5.03903965-.41123655.18675554 2.28838745-5.03903966.41123655z"></path>
    <path fill="#F46C69" fill-rule="nonzero" d="M219.99184565 131.76742659l5.03903966-.41123656.34549775 4.23351677-5.03903966.41123656z"></path>
    <path d="M222.10712658 138.2170412l3.33218142 41.4421525m-1.6086393-41.67174891l3.33218142 41.44215251" stroke="#EF9B35" stroke-width=".575"></path>
    <path fill="#FFFAF5" fill-rule="nonzero" d="M226.8181417 185.973095l2.06825054-6.658296-5.05572354.4591929z"></path>
    <path fill="#0D2451" fill-rule="nonzero" d="M227.85226697 182.643947l-2.52786177.2295964 1.4937365 3.0995516z"></path>
    <path d="M218.2004315 150.5004489l2.8725702 2.755157c-3.79179266 4.0179372-3.67688985 10.3318385.22980561 14.1201793 1.83844493 1.8367713 4.36630669 2.755157 6.89416849 2.755157 1.0341252 0 1.9533477.9183856 1.9533477 1.9515695 0 .573991-.2298056 1.0331838-.574514 1.3775785-.3447085.3443946-.9192225.573991-1.3788337.573991-3.5619871 0-7.00907129-1.3775785-9.65183587-3.903139-5.51533478-5.2807175-5.63023758-14.1201794-.34470843-19.6304933z" fill="#B17400" fill-rule="nonzero"></path>
    <path d="M189.244924 222.134529s-5.055723 16.64574-7.468682 26.518386" stroke="#A36400" stroke-width=".575"></path>
    <path d="M340.342117 142.69417c-.689417 9.069059-2.298057 19.974888-5.974946 27.895965-2.068251 4.47713-2.068251 9.528251-.229806 14.005381 4.48121 10.561435 10.456156 32.832287 4.021598 70.256502h70.435421c-1.378833-17.219731-4.481209-38.113005-11.145572-61.187444-6.54946-22.844843-14.822462-42.130942-22.865659-57.858296-3.102375-6.084305-9.42203-9.872646-16.201296-9.872646-9.42203 0-17.235421 7.347085-18.03974 16.760538z" fill="#F46C69" fill-rule="nonzero"></path>
    <path d="M305.181857 103.088789s3.906696 7.806278 3.791793 15.38296l6.089849.344394-1.723542-9.183856-8.1581-6.543498z" fill="#8E4300" fill-rule="nonzero"></path>
    <path d="M373.20432 105.155157c-2.068251 12.513004-11.375378 21.467265-20.797409 19.86009-9.42203-1.607175-15.282073-12.972198-13.213822-25.4852022 2.06825-12.5130044 11.375378-26.5183856 20.797408-24.9112107 9.42203 1.6071749 15.282073 18.0233184 13.213823 30.5363229z" fill="#0D2451" fill-rule="nonzero"></path>
    <path fill="#19A1F4" fill-rule="nonzero" d="M328.966739 228.678027l-4.825918 14.234977-11.145573-14.923766z"></path>
    <path d="M400.436285 69.2233184c-2.87257-5.3955157-7.009071-9.2986547-11.720086-10.1022422-5.055724-.8035874-10.22635 2.0663677-14.592657 6.7730942-10.685961 9.7578475-26.19784-.573991-26.19784-.573991-4.825918-3.2143498-10.685961-5.2807175-17.005616-5.2807175-16.086393 0-29.185313 13.0869955-29.185313 25.026009 0 11.9390134 13.09892 21.5820631 29.185313 21.5820631h.229806c1.034125 0 6.779266.344394 10.22635 9.069058 0 0 .114903.344395.344708.918386 12.409504 30.07713 53.659612 33.86547 71.469547 6.543497 3.332181-5.165919 6.434557-10.905829 8.962419-17.334529 4.021598-10.3318384 5.630237-19.7452913 6.204751-27.4367711-18.269546 9.7578475-27.921382-9.1838565-27.921382-9.1838565z" fill="#0D2451" fill-rule="nonzero"></path>
    <path d="M400.436285 69.2233184c-2.87257-5.3955157-7.009071-9.2986547-11.720086-10.1022422-5.055724-.8035874-10.22635 2.0663677-14.592657 6.7730942-10.685961 9.7578475-26.19784-.573991-26.19784-.573991-4.825918-3.2143498-10.685961-5.2807175-17.005616-5.2807175-16.086393 0-29.185313 13.0869955-29.185313 25.026009 0 11.9390134 13.09892 21.5820631 29.185313 21.5820631h.229806c1.034125 0 6.779266.344394 10.22635 9.069058 0 0 .114903.344395.344708.918386 12.409504 30.07713 53.659612 33.86547 71.469547 6.543497 3.332181-5.165919 6.434557-10.905829 8.962419-17.334529 4.021598-10.3318384 5.630237-19.7452913 6.204751-27.4367711-18.269546 9.7578475-27.921382-9.1838565-27.921382-9.1838565z" fill="#0D2451" fill-rule="nonzero"></path>
    <path d="M347.925702 101.940807c-.459611-.573991-.689417-.918385-.689417-.918385-6.54946-8.3802695-12.984017-6.8878929-14.133045-6.5434982-.114903 0-.114903 0-.229806.1147982-11.030669 3.329148-22.061339 2.0663677-29.644924-2.5255606 3.906695 8.4950676 14.822462 14.5793726 27.691576 14.5793726h.229806c1.034125 0 6.779266.344394 10.22635 9.069058 0 0 .114903.344395.344708.918386 12.409504 30.07713 53.659612 33.86547 71.469547 6.543497 3.332181-5.165919 6.434557-10.905829 8.962419-17.334529 2.298056-5.8547083 3.791792-11.4798204 4.711015-16.6457397-12.524406 32.7174887-56.302376 40.5237667-78.938229 12.7426007z" fill="#071D3F" fill-rule="nonzero"></path>
    <path d="M315.178402 239.928251h-68.482074c-.919222 0-1.723542.803588-1.723542 1.721973 0 .918386.80432 1.721973 1.723542 1.721973h68.482074v-3.443946z" fill="#19A1F4" fill-rule="nonzero"></path>
    <ellipse fill="#0D2451" fill-rule="nonzero" transform="rotate(-35.5 312.292422 107.318977)" cx="312.292422" cy="107.318977" rx="1" ry="1.37755871"></ellipse>
    <path d="M332.29892 198.3713l3.906696 6.4287s-12.524406 10.21704-11.03067 23.763229l-1.034125-2.066368-9.077322-15.956951 17.235421-12.16861z" fill="#FFEED9" fill-rule="nonzero"></path>
    <path d="M324.140821 226.382063h-56.87689c-8.502808 0-16.086393 5.395515-18.844061 13.546188h66.643629l9.077322-13.546188z" fill="#FFF" fill-rule="nonzero"></path>
    <path fill="#FFFAF5" fill-rule="nonzero" d="M324.140821 226.382063l1.034125 2.181166-1.034125 2.410762-6.894169 18.023318-5.285529-7.347085zm-54.119223 0c-.344708-3.099552-.574514-7.921076.919223-13.546189 1.723542-7.00269 5.170626-11.939013 7.238877-14.69417h54.119222c-1.608639 1.147982-7.009071 5.280718-9.077322 13.201794-1.838445 7.232287.229806 13.086995 1.034126 14.923767-18.154644.114798-36.194385.114798-54.234126.114798z"></path>
    <path d="M318.970194 122.719283c.80432.688789 1.493737 1.377578 2.298057 1.836771 1.838444-2.295964.574514-5.739911.574514-5.739911l-2.872571 3.90314z" fill="#FFF" fill-rule="nonzero"></path>
    <path fill="#F46C69" fill-rule="nonzero" d="M282.431102 254.622422v-11.250225l65.724406-12.398206 1.378833 23.878027z"></path>
    <path d="M282.431102 243.372197h-27.346869c2.412959 2.181166 5.860043 4.706727 10.341253 6.887893 6.779266 3.214349 12.984017 4.132735 17.005616 4.362332v-11.250225z" fill="#8E4300" fill-rule="nonzero"></path>
    <path d="M275.766739 223.167713c-.114903-2.869955.114902-6.887892 1.378833-11.479821 1.149028-4.362331 2.757668-7.691479 4.251404-10.102242m-1.378833 21.582063c-.114903-2.869955.114902-6.887892 1.378833-11.479821 1.149028-4.362331 2.757668-7.691479 4.251404-10.102242m-1.263931 21.582063c-.114903-2.869955.114903-6.887892 1.378834-11.479821 1.149028-4.362331 2.757667-7.691479 4.251404-10.102242m-1.378834 21.582063c-.114903-2.869955.114903-6.887892 1.378834-11.479821 1.149028-4.362331 2.757667-7.691479 4.251404-10.102242m-1.378834 21.582063c-.114903-2.869955.114903-6.887892 1.378834-11.479821 1.149028-4.362331 2.757667-7.691479 4.251404-10.102242m-1.263931 21.582063c-.114903-2.869955.114903-6.887892 1.378833-11.479821 1.149028-4.362331 2.757668-7.691479 4.251404-10.102242m-1.378833 21.582063c-.114903-2.869955.114902-6.887892 1.378833-11.479821 1.149028-4.362331 2.757668-7.691479 4.251404-10.102242m-1.378834 21.582063c-.114902-2.869955.114903-6.887892 1.378834-11.479821 1.149028-4.362331 2.757668-7.691479 4.251404-10.102242m-1.263931 21.582063c-.114903-2.869955.114903-6.887892 1.378834-11.479821 1.149028-4.362331 2.757667-7.691479 4.251404-10.102242m-1.378834 21.582063c-.114903-2.869955.114903-6.887892 1.378834-11.479821 1.149028-4.362331 2.757667-7.691479 4.251404-10.102242" stroke="#FFEED9" stroke-width=".575" stroke-linecap="round"></path>
    <path fill="#F5A73B" fill-rule="nonzero" d="M128.92095062 242.224215h91.462635v12.8573991h-91.462635z"></path>
    <path d="M142.9390932 242.224215v12.8573991m-2.5278618-12.8573991v12.8573991m70.7801296-12.8573991v12.8573991m-2.6427646-12.8573991v12.8573991" stroke="#FFD385" stroke-width=".575"></path>
    <g fill-rule="nonzero">
      <path d="M226.5883367 242.2242148h-87.67084235c-.91922246 0-1.72354212-.8035875-1.72354212-1.7219731 0-.9183857.80431966-1.7219731 1.72354212-1.7219731h87.67084235c.9192224 0 1.7235421.8035874 1.7235421 1.7219731 0 .9183856-.8043197 1.7219731-1.7235421 1.7219731z" fill="#1490ED"></path>
      <path d="M182.6954641 238.7802686v-3.44394622s-24.2444924-11.93901346-39.87127429-3.78834081v7.11748883h39.87127429v.1147982z" fill="#FFF"></path>
      <path d="M182.6954641 238.7802686v-3.44394622s24.2444925-11.93901346 39.8712743-3.78834081v7.11748883h-39.8712743v.1147982z" fill="#FFFAF5"></path>
    </g>
    <path d="M422.842333 179.085202c-7.813391 0-14.133046 6.313901-14.133046 14.120179v61.761435h14.133046v-75.881614z" fill="#FFD385" fill-rule="nonzero"></path>
    <path d="M364.931317 255.081614s8.847517-47.870852 5.745141-88.050224c0 0 7.583585 14.579372 6.664363 23.418834-.919223 8.724664-4.366307 30.306727 2.527862 42.819731 6.894168 12.513005-4.825918 21.696861-4.825918 21.696861l-10.111448.114798z" fill="#EA5959" fill-rule="nonzero"></path>
    <g fill-rule="nonzero">
      <path d="M500.2868255 97.2340811l10.5710583-.1147982c2.1831533-18.9417041-2.0682505-37.9982063-4.2514039-46.26367716-.4596112-1.72197309-2.7576674-2.0663677-3.6768898-.57399103-1.9533478 2.98475337-4.9408208 7.69147982-7.9282938 13.54618839l7.1239741 4.1327354h-9.1922246c-8.96241903 18.7121076-17.12051838 46.2636771-1.95334775 67.1569507 11.49028075-8.2654709 17.00561555-20.6636772 19.18876885-33.5210763l-9.8816414-4.3623318z" fill="#2FCFB3"></path>
      <path d="M496.0354216 96.66009c-.5745141 3.4439462-3.2172786 26.7479821-4.59611232 38.1130045 3.33218142-2.4107623 6.08984882-5.1659192 8.50280782-8.2654708 1.8384449-2.4107624 3.4470842-4.8215247 4.5961123-7.232287v-.1147982c-10.6859612 11.135426-8.5028078-22.5004485-8.5028078-22.5004485z" fill="#13BA9A"></path>
    </g>
    <g fill-rule="nonzero">
      <path d="M460.1857452 102.7443951l-5.7451404 9.1838565c5.2855292 4.8215247 12.8691145 8.0358744 23.2103672 8.6098655-4.2514039-24.5668162-13.2138229-48.7892377-25.85313176-72.66726459-1.26393089-2.29596413-4.59611231-1.8367713-5.17062635.68878923-.80431966 3.32914799-1.83844493 7.69147986-2.52786177 12.62780266l10.80086388 7.8062781-11.37537792-3.6735426c-.34470843 2.7551569-.57451404 5.6251121-.68941685 8.4950672l5.97494601 2.0663677-5.974946 1.0331839c-.11490282 10.3318386 1.49373649 21.12287 7.00907127 29.3883408l10.34125269-3.5587444z" fill="#2FCFB3"></path>
      <path d="M477.650972 120.5381171c-2.412959-13.890583-6.3196544-27.7811659-11.6051836-41.4421525h-.6894168s11.2604751 42.7049327-8.5028078 34.7838565c5.0557235 3.6735426 11.8349892 6.1991032 20.7974082 6.658296z" fill="#13BA9A"></path>
    </g>
    <path d="M496.2652268 97.0044848s-11.2604751 79.7847532-17.2354211 157.9623322" stroke="#13BA9A" stroke-width=".575"></path>
    <path d="M460.7602592 66.4681619s22.5209504 43.967713 24.5892009 120.7677131" stroke="#13BA9A" stroke-width=".575" stroke-linecap="round"></path>
    <g fill-rule="nonzero">
      <path d="M462.9434124 167.8349777l-13.7883369.8035875c-.80431965-1.7219731-1.4937365-3.5587444-2.06825054-5.5103139l6.77926566-2.0663677-7.4686825-.3443947c-2.64276458-12.1686098-.68941685-26.05919278.80431965-33.52107619.45961123-2.06636771 3.10237581-2.52556054 4.13650108-.68878923 11.03066955 18.71210762 19.18876885 37.88340802 23.55507555 57.51390132-9.3071274-.1147982-15.8565874-2.8699551-20.33779693-7.3470852l8.38790493-8.8394619z" fill="#2FCFB3"></path>
      <path d="M465.2414686 155.8959643l1.8384449 2.0663677c3.4470842 8.6098655 6.0898488 17.3345291 8.0431966 26.0591928-4.7110152 0-8.7326134-.8035874-12.1796977-2.0663677 9.6518359-2.9847534 2.2980562-26.0591928 2.2980562-26.0591928z" fill="#13BA9A"></path>
    </g>
    <g fill-rule="nonzero">
      <path d="M505.3425482 156.3551577l13.788337.8035875c.8043196-1.7219731 1.4937365-3.5587444 2.0682505-5.5103139l-6.7792656-2.0663677 7.4686825-.3443947c2.6427645-12.1686098.6894168-26.05919278-.8043197-33.52107619-.4596112-2.06636771-3.1023758-2.52556054-4.1365011-.68878923-11.0306695 18.71210762-19.18876887 37.88340802-23.55507557 57.51390132 9.30712743-.1147982 15.85658747-2.8699551 20.33779697-7.3470852l-8.387905-8.8394619z" fill="#2FCFB3"></path>
      <path d="M503.1593949 144.4161443l-1.83844493 2.0663677c-3.44708424 8.6098655-6.08984881 17.3345291-8.04319655 26.0591928 4.71101512 0 8.73261339-.8035874 12.17969758-2.0663677-9.65183581-3.0995516-2.2980561-26.0591928-2.2980561-26.0591928z" fill="#13BA9A"></path>
    </g>
    <path d="M458.4622031 140.1686104s22.1762419 38.4573986 22.7507559 87.8206276m28.8406048-100.6780267s-20.7974082 37.7686097-29.300216 107.3363227" stroke="#13BA9A" stroke-width=".575"></path>
    <path fill="#FFF" fill-rule="nonzero" d="M514.764579 255.081614h-70.665227l-5.74514-13.43139h82.155507z"></path>
  </g>
</svg>