<svg width="540" height="300" viewBox="0 0 540 300" xmlns="http://www.w3.org/2000/svg">
  <g fill="none" fill-rule="evenodd">
    <path d="M461.424925 221.100448H79.57507507" stroke="#C1F2F4" stroke-width="3.45"></path>
    <path fill="#C1F2F4" fill-rule="nonzero" d="M433.0451999 219.2400286h-14.0318318v-65.2053812h14.0318318zm-27.4714507 0h-14.0318318v-65.2053812h14.0318318zm-35.64924904.0522333h-14.0318318v-52.1183857h14.0318318z"></path>
    <path fill="#B0EAEA" fill-rule="nonzero" d="M443.0068799 219.2922619h-10.0063063v-52.1183857h10.0063063zm-61.96061882.57051163l-10.35542283-1.52180973 10.5157457-71.55624748 10.35542284 1.52180972zm37.95537612-.6206785h-14.0318318v-78.9811659h14.0318318z"></path>
    <path d="M418.9843843 146.366816h-13.9168168m13.9168168 2.9847534h-13.9168168" stroke="#C1F2F4" stroke-width=".575"></path>
    <path d="M369.8729729 171.2780268h-14.0318318m14.0318318 3.3291479h-14.0318318m14.0318318 3.2143498h-14.0318318m14.0318318 3.2143498h-14.0318318m14.0318318 3.2143498h-14.0318318m14.0318318 3.3291479h-14.0318318m14.0318318 3.2143498h-14.0318318m14.0318318 3.2143498h-14.0318318m14.0318318 3.2143498h-14.0318318m14.0318318 3.329148h-14.0318318m14.0318318 3.2143497h-14.0318318m14.0318318 3.2143498h-14.0318318m14.0318318 3.2143498h-14.0318318m14.0318318 3.329148h-14.0318318" stroke="#B0EAEA" stroke-width=".575"></path>
    <path d="M418.9843843 209.5058294h-13.9168168m13.9168168 2.9847534h-13.9168168" stroke="#C1F2F4" stroke-width=".575"></path>
    <path d="M426.0003003 212.4905828c1.2651651 0 2.4153153-1.0331838 2.4153153-2.4107623v-46.9524664c0-1.2627803-1.0351352-2.4107623-2.4153153-2.4107623-1.2651652 0-2.4153154 1.0331838-2.4153154 2.4107623v46.9524664c0 1.3775785 1.1501502 2.4107623 2.4153154 2.4107623z" stroke="#B0EAEA" stroke-width=".575"></path>
    <path d="M437.9618618 174.6071747v36.735426" stroke="#C1F2F4" stroke-width=".575"></path>
    <path fill="#C1F2F4" fill-rule="nonzero" d="M139.9041313 219.2400286h-14.0318318v-65.2053812h14.0318318zm-27.35643767 0h-14.0318318v-65.2053812h14.0318318z"></path>
    <path fill="#B0EAEA" fill-rule="nonzero" d="M149.8656963 219.2922619H139.85939v-52.1183857h10.0063063zm27.10154573-2.444285l-13.76488198 3.26650681-13.59804223-57.30140995 13.76488198-3.26650682zm-50.99166043 2.39411811h-14.0318318v-78.9811659h14.0318318z"></path>
    <path d="M125.9261257 146.366816h-14.0318318m14.0318318 2.9847534h-14.0318318m14.0318318 60.15426h-14.0318318m14.0318318 2.9847534h-14.0318318" stroke="#C1F2F4" stroke-width=".575"></path>
    <path d="M132.9420416 212.4905828c1.2651652 0 2.4153154-1.0331838 2.4153154-2.4107623v-46.9524664c0-1.2627803-1.0351352-2.4107623-2.4153154-2.4107623-1.2651651 0-2.4153153 1.0331838-2.4153153 2.4107623v46.9524664c0 1.3775785 1.0351352 2.4107623 2.4153153 2.4107623z" stroke="#B0EAEA" stroke-width=".575"></path>
    <path d="M144.9036032 174.6071747v36.735426" stroke="#C1F2F4" stroke-width=".575"></path>
    <path fill="#C1F2F4" fill-rule="nonzero" d="M319.474199 219.2400286h-14.0318318v-65.2053812h14.0318318zm-27.471567 0h-14.0318318v-65.2053812h14.0318318zm-85.9726874 0h-9.77627628v-65.2053812h9.77627628z"></path>
    <path fill="#C1F2F4" fill-rule="nonzero" d="M196.4862278 219.2958203h-11.9615616v-43.8529148h11.9615616zm59.8671547-.0035584h-14.0318318v-52.1183857h14.0318318z"></path>
    <path fill="#B0EAEA" fill-rule="nonzero" d="M329.435649 219.2922619h-10.0063063v-52.1183857h10.0063063zm27.09729178-2.4469373l-13.76488198 3.26650683-13.59804222-57.30140995 13.76488197-3.26650682zm-89.05517376 3.0188043l-10.35542283-1.52180972 10.51574571-71.55624748 10.35542283 1.52180972zm38.06776798-.62203388h-14.0318318v-78.9811659h14.0318318zm-62.6117592-.04752582h-9.54624625v-63.2538117h9.54624625z"></path>
    <path d="M305.464565 146.366816h-14.031832m14.031832 2.9847534h-14.031832" stroke="#C1F2F4" stroke-width=".575"></path>
    <path d="M256.3531533 171.2780268h-14.0318318m14.0318318 3.3291479h-14.0318318m14.0318318 3.2143498h-14.0318318m14.0318318 3.2143498h-14.0318318m14.0318318 3.2143498h-14.0318318m14.0318318 3.3291479h-14.0318318m14.0318318 3.2143498h-14.0318318m14.0318318 3.2143498h-14.0318318m14.0318318 3.2143498h-14.0318318m14.0318318 3.329148h-14.0318318m14.0318318 3.2143497h-14.0318318m14.0318318 3.2143498h-14.0318318m14.0318318 3.2143498h-14.0318318m14.0318318 3.329148h-14.0318318" stroke="#B0EAEA" stroke-width=".575"></path>
    <path d="M305.464565 209.5058294h-14.031832m14.031832 2.9847534h-14.031832" stroke="#C1F2F4" stroke-width=".575"></path>
    <path fill="#B0EAEA" fill-rule="nonzero" d="M219.198243 219.2922619h-14.0318318v-52.1183857h14.0318318zm-34.86657219 0h-14.0318318v-52.1183857h14.0318318z"></path>
    <path d="M219.2033034 171.1632286h-13.9168168m13.9168168 2.0663677h-13.9168168m13.9168168 39.6053811h-13.9168168m13.9168168 1.9515695h-13.9168168" stroke="#C1F2F4" stroke-width=".575"></path>
    <path d="M312.480481 212.4905828c1.265165 0 2.415315-1.0331838 2.415315-2.4107623v-46.9524664c0-1.2627803-1.035135-2.4107623-2.415315-2.4107623-1.265166 0-2.415316 1.0331838-2.415316 2.4107623v46.9524664c0 1.3775785 1.035135 2.4107623 2.415316 2.4107623z" stroke="#B0EAEA" stroke-width=".575"></path>
    <path fill="#C1F2F4" fill-rule="nonzero" d="M233.4678112 219.2400286h-14.0318318v-65.2053812h14.0318318z"></path>
    <path d="M226.5642644 212.4905828c1.2651652 0 2.4153153-1.0331838 2.4153153-2.4107623v-46.9524664c0-1.2627803-1.0351351-2.4107623-2.4153153-2.4107623-1.2651652 0-2.4153153 1.0331838-2.4153153 2.4107623v46.9524664c0 1.3775785 1.0351351 2.4107623 2.4153153 2.4107623z" stroke="#B0EAEA" stroke-width=".575"></path>
    <path d="M324.442042 174.6071747v36.735426" stroke="#C1F2F4" stroke-width=".575"></path>
    <g fill-rule="nonzero">
      <path d="M355.15105117 153.5991036C350.32042053 203.0771305 376.888889 253.932736 376.888889 253.932736l2.5303303-.573991 2.5303304-.573991s.23003-57.3991033-26.79849853-99.1856504z" fill="#2FCFB3"></path>
      <path d="M355.15105117 153.5991036c2.53033033 5.5103139 5.98078078 13.890583 8.62612612 24.5668162 2.53033031 10.4466367 3.10540541 18.367713 3.45045041 21.8116592 1.0351352 11.4798206 3.9105106 28.699552 12.1915916 53.381166.8051051-.229597 1.7252253-.459193 2.5303304-.573991 0 0 .23003-57.3991033-26.79849853-99.1856504z" fill="#13BA9A"></path>
      <path d="M383.3297298 128.45829644c-19.3225225 55.33273546-3.1054054 121.22690556-3.1054054 121.22690556h6.2108108c0 .114798 16.2171172-65.7793719-3.1054054-121.22690556z" fill="#2FCFB3"></path>
      <path d="M386.4351352 249.8s16.2171172-65.8941699-3.1054054-121.22690535c4.6006006 16.41614345 5.4057057 30.07713005 5.1756757 39.94977575-.345045 15.7273543-3.4504504 23.3040359-5.1756757 41.9013453-1.4951952 16.1865471-.8051051 29.7327353 0 39.3757843h3.1054054z" fill="#13BA9A"></path>
      <path d="M381.9495497 260.591032l2.4153153.918386 2.4153153.918385s32.7792793-47.1820626 34.3894895-96.7748877c-32.0891892 37.883408-39.2201201 94.9381167-39.2201201 94.9381167z" fill="#2FCFB3"></path>
      <path d="M421.1696698 165.5381171c-.3450451 11.8242152-2.9903904 20.5488789-5.4057057 26.2887892-2.7603604 6.658296-4.4855856 7.806278-8.0510511 15.9569507-4.7156156 10.6762332-4.9456456 16.1865471-7.4759759 24.33722-2.3003003 7.347085-6.6708709 17.678923-15.8720721 29.273542.8051051.344395 1.6102102.573991 2.4153153.918386 0 .114798 32.8942943-47.0672646 34.3894895-96.7748879z" fill="#13BA9A"></path>
      <path d="M360.7867869 300.081615c-4.02552552-5.625112-6.0957958-12.857399-4.94564564-20.434081L360.32672684 249.8H407.137838l4.4855855 29.847534c1.1501502 7.576682-.9201201 14.694171-4.9456456 20.434081h-45.890991z" fill="#FFF"></path>
      <path d="M369.6429431 300.081615c1.7252252-2.869955 4.1405405-6.084305 7.4759759-8.95426 9.3162162-8.035875 17.3672673-6.4287 23.8081081-12.742601 4.0255256-3.903139 8.0510511-11.709417 5.7507508-28.699552h.4600601l4.4855855 29.847534c1.1501502 7.576682-.9201201 14.69417-4.9456456 20.434081h-37.0348348v.114798z" fill="#FFFAF5"></path>
    </g>
    <path d="M392.530931 126.1623318H152.9546547" stroke="#C1F2F4" stroke-width="3.45"></path>
    <path fill="#C1F2F4" fill-rule="nonzero" d="M352.870992 124.3924873h-14.0318318V59.1871061h14.0318318zm-27.35655 0h-14.0318318V59.1871061h14.0318318zm-135.7480822.00975796h-8.62612613v-72.896861h8.62612613zm49.660378-.00975796h-9.77627628V59.1871061h9.77627628z"></path>
    <path fill="#C1F2F4" fill-rule="nonzero" d="M229.997923 124.3334812h-11.9615616V80.4805664h11.9615616zm59.75214-.0035584h-14.0318318V72.2115371h14.0318318z"></path>
    <path fill="#B0EAEA" fill-rule="nonzero" d="M362.832444 124.3299228h-10.0063063V72.2115371h10.0063063zm-61.9691777.68131626l-10.35542284-1.52180972 10.51574571-71.55624749 10.35542283 1.52180973zm38.0790637-.61668538h-14.0318318v-78.9811659H338.94233zm-62.6117589-.04752578h-9.54624625V61.0932162h9.54624625z"></path>
    <path d="M338.933934 51.42869955h-14.031832m14.031832 3.09955157h-14.031832" stroke="#C1F2F4" stroke-width=".575"></path>
    <path d="M289.707507 76.4547085h-13.916816m13.916816 3.2143498h-13.916816m13.916816 3.2143498h-13.916816m13.916816 3.2143497h-13.916816m13.916816 3.329148h-13.916816m13.916816 3.2143498h-13.916816m13.916816 3.2143498h-13.916816m13.916816 3.2143498h-13.916816m13.916816 3.3291479h-13.916816m13.916816 3.2143498h-13.916816m13.916816 3.2143498h-13.916816m13.916816 3.329148h-13.916816m13.916816 3.2143497h-13.916816m13.916816 3.2143498h-13.916816" stroke="#B0EAEA" stroke-width=".575"></path>
    <path d="M338.933934 114.567713h-14.031832m14.031832 2.9847534h-14.031832" stroke="#C1F2F4" stroke-width=".575"></path>
    <path fill="#B0EAEA" fill-rule="nonzero" d="M252.7100533 124.3299228h-14.0318318V72.2115371h14.0318318zm-34.9815872 0h-14.0318318V72.2115371h14.0318318z"></path>
    <path d="M252.6726727 76.3399103h-14.0318319m14.0318319 1.9515695h-14.0318319m14.0318319 39.6053812h-14.0318319m14.0318319 2.0663677h-14.0318319" stroke="#C1F2F4" stroke-width=".575"></path>
    <path d="M345.94985 117.5524664c1.265165 0 2.415315-1.0331839 2.415315-2.4107624V68.3040359c0-1.2627803-1.035135-2.4107624-2.415315-2.4107624-1.265165 0-2.415315 1.0331839-2.415315 2.4107624v46.9524663c0 1.2627803 1.035135 2.2959642 2.415315 2.2959642z" stroke="#B0EAEA" stroke-width=".575"></path>
    <path fill="#C1F2F4" fill-rule="nonzero" d="M266.9796194 124.3924873h-14.0318318V59.1871061h14.0318318z"></path>
    <path d="M259.9186186 117.5524664c1.2651652 0 2.4153153-1.0331839 2.4153153-2.4107624V68.3040359c0-1.2627803-1.0351351-2.4107624-2.4153153-2.4107624-1.2651652 0-2.4153153 1.0331839-2.4153153 2.4107624v46.9524663c0 1.2627803 1.1501501 2.2959642 2.4153153 2.2959642z" stroke="#B0EAEA" stroke-width=".575"></path>
    <path fill="#B0EAEA" fill-rule="nonzero" d="M203.6530426 124.3924873h-14.0318318V59.1871061h14.0318318z"></path>
    <path d="M196.6603603 117.5524664c1.2651652 0 2.4153154-1.0331839 2.4153154-2.4107624V68.3040359c0-1.2627803-1.0351352-2.4107624-2.4153154-2.4107624-1.2651651 0-2.4153153 1.0331839-2.4153153 2.4107624v46.9524663c0 1.2627803 1.0351352 2.2959642 2.4153153 2.2959642zM357.911411 79.6690583v36.735426" stroke="#C1F2F4" stroke-width=".575"></path>
    <path fill="#B0EAEA" fill-rule="nonzero" d="M181.57096485 124.3299228h-10.0063063V72.2115371h10.0063063z"></path>
    <path d="M176.64774774 79.6690583v36.735426" stroke="#C1F2F4" stroke-width=".575"></path>
    <g transform="translate(149.159159 93.215247)">
      <path d="M97.5327327 49.5928251c1.4951952-3.0995516 4.8306303-5.1659193 9.3162163-6.4286995 8.051051-2.2959642 12.306607-10.561435 9.661261-18.4825113-.92012-2.7551569-1.035135-5.6251121-.23003-8.380269 3.565466-11.70941705 25.648349-19.28609866 46.581081-12.85739911 21.047748 6.42869955 33.124325 24.45201791 29.443844 36.16143501-1.61021 5.3955157-6.900901 8.7246636-14.031832 10.2170403-6.210811 1.2627803-8.971171 8.2654709-5.405705 13.4313902 5.06066 7.3470852 6.67087 15.612556 3.45045 22.5004484-5.750751 12.1686099-24.498198 15.2681619-41.865465 7.0026906C117.2003 84.7210762 91.781982 61.761435 97.5327327 49.5928251z" fill="#0D2451" fill-rule="nonzero"></path>
      <path d="M151.244745 82.1955157c7.015916-6.8878924 8.856156-17.5641256 5.865766-28.8143498-2.070271-7.9210762 4.485585-15.1533632 12.651651-13.8905829 9.431231 1.3775784 17.252252-.3443947 21.622823-6.1991032.46006-.573991.805105-1.147982 1.15015-1.7219731.575075 2.8699552.575075 5.6251121-.23003 8.1506727-1.61021 5.3955157-6.900901 8.7246636-14.031832 10.2170403-6.210811 1.2627803-8.971171 8.2654709-5.405705 13.4313902 5.06066 7.3470852 6.67087 15.612556 3.45045 22.5004484-5.750751 12.1686099-24.498198 15.2681617-41.865465 7.0026906-2.530331-1.1479821-5.175676-2.6403588-7.821021-4.3623319 9.546246 1.6071749 18.517417-.3443946 24.613213-6.3139013z" fill="#071D3F" fill-rule="nonzero"></path>
      <path d="M74.8747748 130.869955h97.1876872c17.252253 0 31.16907 13.890583 31.16907 31.110314v44.656502H43.7057057v-44.656502c0-17.104933 13.9168168-31.110314 31.1690691-31.110314z" fill="#F46C69" fill-rule="nonzero"></path>
      <path d="M64.8684685 135.576682c2.6453453-8.95426 8.9711711-16.301346 17.3672672-20.548879 10.9264265-5.625112 25.0732733-18.4825115 20.9327323-47.2968613l10.006307-6.5434978s4.485585 26.7479821 38.99009 40.0645741c10.811411 4.132735 19.667567 12.16861 24.843243 22.500448 9.661261 18.941704 23.118018 50.281615 26.223424 82.884305h-29.098799l2.875375-8.609865-16.792192-33.061884c1.495195 8.495068 2.415315 18.712108 2.185285 30.07713-.115015 4.017938-.345045 7.806278-.805105 11.479821H56.0123123c0 .114798-2.6453453-32.028699 8.8561562-70.945291z" fill="#2FCFB3" fill-rule="nonzero"></path>
      <path d="M94.4273273 105.61435c6.6708707-7.69148 11.3864867-19.5156953 8.7411407-37.8834083l10.006307-6.5434978s3.91051 23.0744395 32.089189 36.9650225c.115015 16.5309416-13.226727 29.0439466-26.913514 28.4699556-10.926426-.344395-20.9327323-8.954261-23.9231227-21.008072z" fill="#B17400" fill-rule="nonzero"></path>
      <path d="M97.0726727 101.940807c5.0606603-7.6914796 8.2810813-18.5973092 5.9807803-34.2098653l10.006307-6.5434978s.805105 4.8215247 4.37057 11.3650225c-1.725225.6887892-4.6006 2.0663677-6.670871 4.9363228-4.025525 5.2807175-1.84024 10.6762332-5.405705 16.8753364-1.15015 2.0663677-3.450451 5.051121-8.2810813 7.5766814z" fill="#A36400" fill-rule="nonzero"></path>
      <path d="M168.727027 148.089686l-1.15015 31.569507-7.475976-14.694171c1.495195 8.495068 2.415315 18.712108 2.185285 30.07713-.115015 4.017938-.345045 7.806278-.805105 11.479821h-14.261862c-.92012-3.099551-1.84024-7.921076-1.15015-13.546188 1.035135-8.265471 4.945646-12.283408 6.900901-17.449328 2.185285-5.854708 2.76036-15.382959-5.750751-30.651121 7.245946 1.147982 14.376877 2.181166 21.507808 3.21435z" fill="#13BA9A" fill-rule="nonzero"></path>
      <path d="M168.727027 137.987444c.92012 1.377578 2.875375 7.002691 3.565465 8.380269 4.830631 9.413453 15.066967-.918386 20.012613 13.201794 5.060661 14.349776 9.201201 30.536323 10.811412 46.952466h-29.098799c-2.530331-10.102242-7.475976-22.156054-12.536637-33.176682-8.051051-17.449327 4.715616-29.043946 4.715616-29.043946l2.53033-6.313901z" fill="#2FCFB3" fill-rule="nonzero"></path>
      <path d="M161.596096 173.46009c-8.051051-17.449328-16.447147-32.258296-16.447147-32.258296l29.328829-21.696861c.92012 1.377578 1.725225 2.755157 2.415315 4.247533 4.830631 9.413453 10.466366 21.81166 15.412012 35.931839-5.750751 4.017937-16.217117 10.102242-30.709009 13.775785zM59.3477477 158.765919c8.6261262 7.232287 17.4822823 7.117489 17.4822823 7.117489l-6.3258258 40.753363H55.8972973c.115015 0-1.6102102-20.089686 3.4504504-47.870852z" fill="#2FCFB3" fill-rule="nonzero"></path>
      <path d="M76.83003 165.883408l-6.3258258 40.753363H55.8972973c8.2810811-8.95426 10.3513513-16.64574 10.6963964-22.041255.345045-6.313902-1.4951952-12.283408 2.1852853-16.071749 2.3003003-2.295964 5.6357357-2.640359 8.051051-2.640359z" fill="#13BA9A" fill-rule="nonzero"></path>
      <path d="M66.2486486 206.636771S46.8111111 131.558744 30.478979 101.481614l-2.5303304 8.495068s6.0957958 63.942601 12.4216217 96.430493l25.8783783.229596z" fill="#B17400" fill-rule="nonzero"></path>
      <path fill="#B17400" fill-rule="nonzero" d="M30.478979 101.481614l-4.3705706-5.73991-1.7252252 4.2475337 5.7507507 6.6582963z"></path>
      <path d="M25.3033033 104.9255606c-.23003-.2295964-.345045-.4591928-.4600601-.6887892l-7.936036-23.8780269c-.345045-1.03318385.23003-2.18116592 1.2651652-2.52556054 1.0351351-.34439461 2.1852853.22959642 2.5303303 1.26278027l7.936036 23.87802687c.3450451 1.0331839-.23003 2.181166-1.2651651 2.5255606-.8051051.2295964-1.6102102 0-2.0702703-.5739911z" fill="#B17400" fill-rule="nonzero"></path>
      <path d="M25.3033033 104.9255606c-.115015-.1147982-.23003-.2295964-.23003-.3443946L6.0957958 74.61883419c-.57507508-.91838565-.34504505-2.18116592.57507507-2.75515695.92012012-.57399103 2.18528529-.34439462 2.76036036.57399103L28.2936937 102.4000001c.5750751.9183857.345045 2.1811659-.5750751 2.755157-.8051051.6887892-1.8402402.4591928-2.4153153-.2295965z" fill="#B17400" fill-rule="nonzero"></path>
      <path d="M25.3033033 104.9255606L.69009009 79.44035885c-.8051051-.80358744-.69009009-2.06636771 0-2.75515695.80510511-.80358744 2.07027027-.68878924 2.76036036 0l24.61321325 25.4852018c.8051051.8035874.6900901 2.0663677 0 2.7551569-.8051051.9183857-2.0702703.8035875-2.7603604 0z" fill="#B17400" fill-rule="nonzero"></path>
      <path d="M28.0636637 102.2852019c-5.2906907-5.5103139-14.1468469-5.7399103-19.6675676-.3443946-2.53033033 2.5255605-4.14054054 5.8547085-4.25555556 9.4134529 0 1.0331839.80510511 2.0663677 1.84024024 2.0663677 1.03513514 0 2.07027027-.8035874 2.07027027-1.8367713.11501502-2.5255605 1.15015015-4.9363229 3.10540545-6.7730942 4.0255255-3.7883408 10.3513513-3.6735426 14.1468468.2295965l2.7603604-2.755157z" fill="#B17400" fill-rule="nonzero"></path>
      <path fill="#F5A73B" fill-rule="nonzero" d="M21.68458126 126.39105354l-5.04396048-.41163814 3.38027526-41.4198127 5.04396048.41163815z"></path>
      <path fill="#FFFAF5" fill-rule="nonzero" d="M25.12760906 85.01776664l-5.04396048-.41163815.18675554-2.28838744 5.04396048.41163814z"></path>
      <path fill="#F46C69" fill-rule="nonzero" d="M25.24089254 82.65397748l-5.04396047-.41163815.34549774-4.23351677 5.04396048.41163814z"></path>
      <path d="M23.46306296 84.83587423l-3.45045045 41.44215247m1.72522523-41.55695067l-3.45045045 41.44215247" stroke="#EF9B35" stroke-width=".575"></path>
      <path fill="#FFFAF5" fill-rule="nonzero" d="M18.63243233 132.591928l-1.95525525-6.5434977 5.06066066.3443946z"></path>
      <path fill="#0D2451" fill-rule="nonzero" d="M17.71231221 129.3775783l2.41531532.1147982-1.4951952 3.0995515z"></path>
      <path d="M28.0636637 102.2852019l-2.8753754 2.755157c3.7954955 4.0179372 3.6804805 10.3318385-.23003 14.1201793-1.8402403 1.8367713-4.3705706 2.755157-6.9009009 2.755157-1.0351352 0-1.9552553.9183856-1.9552553 1.9515695 0 .573991.23003 1.0331838.5750751 1.3775785.345045.3443946.9201201.573991 1.3801802.573991 3.5654654 0 7.0159159-1.3775785 9.6612612-3.903139 5.5207207-5.2807175 5.7507508-14.1201794.3450451-19.6304933z" fill="#B17400" fill-rule="nonzero"></path>
      <path fill="#F46C69" fill-rule="nonzero" d="M117.51452092 206.7795804h-91.551952v-12.8573991h91.551952z"></path>
      <path d="M103.3984982 194.00896906v12.85739914m2.6453453-12.85739914v12.85739914m-70.96426422-12.85739914v12.85739914m2.64534532-12.85739914v12.85739914" stroke="#EA5959" stroke-width=".575"></path>
      <g fill-rule="nonzero">
        <path d="M19.78258233 194.0089688h87.75645647c.9201201 0 1.7252252-.8035875 1.7252252-1.7219731 0-.9183857-.8051051-1.7219731-1.7252252-1.7219731H19.78258233c-.92012012 0-1.72522523.8035874-1.72522523 1.7219731 0 .9183856.6900901 1.7219731 1.72522523 1.7219731z" fill="#1490ED"></path>
        <path d="M63.6033031 190.5650226v-3.44394622s24.2681681-11.93901346 39.9102102-3.78834081v7.11748883H63.6033031v.1147982z" fill="#FFF"></path>
        <path d="M63.6033031 190.5650226v-3.44394622s-24.2681682-11.93901346-39.91021026-3.78834081v7.11748883H63.6033031v.1147982z" fill="#FFFAF5"></path>
      </g>
      <path d="M72.6894895 39.2609865C69.3540541 26.173991 76.945045 12.6278027 90.0567568 8.83946188 102.133333 5.28071749 114.784985 11.2502242 119.960661 22.270852c0 0 19.437537 36.3910314-15.757057 54.9883408-3.335436 1.7219731-7.4759764 1.2627803-10.4663668-1.147982-5.9807807-4.9363229-15.757057-15.8421525-21.0477477-36.8502243z" fill="#B17400" fill-rule="nonzero"></path>
      <path d="M73.9546547 22.9596413c2.8753753-6.658296 8.5111111-12.0538117 15.987087-14.23497762C102.018318 5.16591928 114.66997 11.135426 119.845646 22.1560538c0 0 6.44084 12.1686099 5.175675 26.0591928-15.872072 9.7578476-41.1753751-14.5793722-51.0666663-25.2556053z" fill="#0D2451" fill-rule="nonzero"></path>
      <path d="M73.9546547 22.9596413c2.8753753-6.658296 8.5111111-12.0538117 15.987087-14.23497762C102.018318 5.16591928 114.66997 11.135426 119.845646 22.1560538c0 0 6.44084 12.1686099 5.175675 26.0591928-15.872072 9.7578476-41.1753751-14.5793722-51.0666663-25.2556053z" fill="#0D2451" fill-rule="nonzero"></path>
      <path d="M73.95465505 22.9596416l.69009009-1.3775784c.23003003 1.0331838.57507507 2.0663677.92012012 3.0995515-.57507508-.573991-1.15015015-1.147982-1.61021021-1.7219731zm41.63543545 8.6098655c.9201201-6.7730942-.4600601-13.43139014-3.7954955-19.05650224 3.4504504 2.41076233 6.3258258 5.73991031 8.1660661 9.75784754 0 0 6.4408408 12.1686099 5.1756756 26.0591928 0 0-.115015 0-.115015.1147982-5.8657658 3.4439462-12.8816817-2.2959641-11.0414414-8.8394619 1.2651651-4.8215246 1.6102102-8.0358744 1.6102102-8.0358744z" fill="#071D3F" fill-rule="nonzero"></path>
      <path d="M72.6894895 39.2609865c-1.3801802-5.6251121-.8051051-11.2502242 1.2651652-16.186547.115015.1147982 8.166066 11.3650224.69009 23.0744394-.69009-2.1811659-1.3801801-4.47713-1.9552552-6.8878924z" fill="#0D2451" fill-rule="nonzero"></path>
      <path d="M88.1015015 47.870852s5.7507508 7.4618834 2.6453453 15.8421525l6.3258259-1.8367713" stroke="#A36400" stroke-width=".8625" stroke-linecap="round" stroke-linejoin="round"></path>
      <ellipse fill="#0D2451" fill-rule="nonzero" transform="rotate(-36.378 97.616291 50.036256)" cx="97.6162911" cy="50.0362561" rx="1" ry="1.49234207"></ellipse>
      <ellipse fill="#0D2451" fill-rule="nonzero" transform="rotate(-36.378 83.610729 54.192732)" cx="83.6107287" cy="54.1927318" rx="1" ry="1.49234207"></ellipse>
      <path d="M97.5327327 61.8762332l-7.2459459 2.0663677c.115015.1147982 5.0606606 4.47713 7.2459459-2.0663677z" fill="#A36400" fill-rule="nonzero"></path>
      <path d="M102.938438 66.238565l-9.3162158 4.8215247s7.7060058 4.1327354 9.3162158-4.8215247z" fill="#FFF" fill-rule="nonzero"></path>
    </g>
    <g transform="translate(111.204204 211.457399)">
      <path d="M13.9168168.34439462c3.9105105 0 7.245946 2.86995516 7.821021 6.77309417l1.3801802 9.18385651H4.83063063l1.38018018-9.18385651C6.67087087 3.21434978 10.0063063.34439462 13.9168168.34439462z" fill="#19A1F4" fill-rule="nonzero"></path>
      <path fill="#19A1F4" fill-rule="nonzero" d="M66.2862583 16.33429231H13.8394115V.37734161h52.4468468z"></path>
      <path d="M66.2486486.34439462c3.9105106 0 7.245946 2.86995516 7.8210211 6.77309417l1.3801801 9.18385651H57.1624625l1.3801801-9.18385651c.4600601-3.90313901 3.7954955-6.77309417 7.706006-6.77309417z" fill="#1490ED" fill-rule="nonzero"></path>
      <path d="M53.251952 8.38026906H.69009009" stroke="#F5A73B" stroke-width=".575" stroke-linecap="round"></path>
      <path d="M66.2486486 8.38026906H53.251952" stroke="#FFD385" stroke-width=".575" stroke-linecap="round"></path>
      <path d="M29.6738739 8.38026906V83.9174888" stroke="#F5A73B" stroke-width=".575" stroke-linecap="round"></path>
      <path fill="#FFD385" fill-rule="nonzero" d="M50.67515491 88.4226305H8.69467441v-4.47713004h41.9804805z"></path>
      <path d="M44.2807808 81.3919283H14.951952" stroke="#F5A73B" stroke-width=".575" stroke-linecap="round"></path>
      <path d="M66.2486486 16.3013453v18.8269058" stroke="#FFD385" stroke-width=".575" stroke-linecap="round"></path>
      <ellipse fill="#FFD385" fill-rule="nonzero" cx="66.2486486" cy="36.735426" rx="1.95525526" ry="1.95156951"></ellipse>
    </g>
    <path fill="#19A1F4" fill-rule="nonzero" d="M385.04138371 299.994828h-69.9291291v-12.8573991h69.9291291z"></path>
    <path fill="#0D2451" fill-rule="nonzero" d="M396.7371459 287.1278994h-69.9291291v-12.8573991h69.9291291z"></path>
    <path d="M326.7423426 274.3668163h69.9291291v4.9363229c-2.1852853-.573991-5.6357357-1.2627803-9.7762763-1.3775785-11.1564564-.3443946-13.2267267 3.7883408-22.1978979 4.1327355-11.9615615.573991-14.4918919-6.5434978-26.7984985-4.8215247-4.8306306.6887892-8.7411411 2.2959641-11.2714715 3.5587444.1150151-2.1811659.1150151-4.3623318.1150151-6.4286996z" fill="#071D3F" fill-rule="nonzero"></path>
    <path fill="#FFC871" fill-rule="nonzero" d="M392.25777063 274.40986546h-69.9291291v-12.8573991h69.9291291z"></path>
    <path d="M329.3876879 271.0376684h55.7822823c1.4951952 0 2.6453453-1.1479821 2.6453453-2.64035879v-.80358744c0-1.49237668-1.1501501-2.64035874-2.6453453-2.64035874h-55.7822823c-1.4951952 0-2.6453453 1.14798206-2.6453453 2.64035874v.80358744c0 1.37757848 1.2651651 2.64035879 2.6453453 2.64035879z" stroke="#F5A73B" stroke-width=".575"></path>
    <path d="M374.2435438 287.2242154v12.8573991m1.9552552-12.8573991v12.8573991m-54.05705704-12.8573991v12.8573991m1.95525526-12.8573991v12.8573991" stroke="#1490ED" stroke-width=".575"></path>
  </g>
</svg>