<svg width="540" height="300" viewBox="0 0 540 300" xmlns="http://www.w3.org/2000/svg">
  <g transform="translate(16 45)" fill="none" fill-rule="evenodd">
    <path d="M508.540406 175.98565H.80428894" stroke="#C1F2F4" stroke-width="3.45"></path>
    <path fill="#C1F2F4" fill-rule="nonzero" d="M403.7312169 174.166903h-14.0176072v-65.2053812h14.0176072zm-27.4436035 0h-14.0176072v-65.2053812h14.0176072zm-35.61322514-.0625664h-14.0176072v-52.1183857h14.0176072z"></path>
    <path fill="#B0EAEA" fill-rule="nonzero" d="M413.6826832 174.1043366h-9.99616253v-52.1183857h9.99616253zm27.0792298-2.33063242l-13.750928 3.26319544-13.59804224-57.30140995 13.750928-3.26319544zm-88.98487354 3.01149788l-10.34492518-1.52026702 10.5157457-71.55624748 10.3449252 1.52026701zm38.03974794-.61634783h-14.0176072v-78.9811659h14.0176072z"></path>
    <path d="M389.7354398 101.25201779h-14.0176073m14.0176073 3.09955161h-14.0176073" stroke="#C1F2F4" stroke-width=".575"></path>
    <path d="M340.6738145 126.1632286h-14.01760724m14.01760724 3.3291479h-14.01760724m14.01760724 3.2143498h-14.01760724m14.01760724 3.2143498h-14.01760724m14.01760724 3.2143498h-14.01760724m14.01760724 3.3291479h-14.01760724m14.01760724 3.2143498h-14.01760724m14.01760724 3.2143498h-14.01760724m14.01760724 3.329148h-14.01760724m14.01760724 3.2143498h-14.01760724m14.01760724 3.2143497h-14.01760724m14.01760724 3.2143498h-14.01760724m14.01760724 3.329148h-14.01760724m14.01760724 3.2143498h-14.01760724" stroke="#B0EAEA" stroke-width=".575"></path>
    <path d="M389.7354398 164.3910312h-14.0176073m14.0176073 2.9847534h-14.0176073" stroke="#C1F2F4" stroke-width=".575"></path>
    <path d="M396.7442434 167.3757846c1.2638826 0 2.4128668-1.0331839 2.4128668-2.4107623v-46.9524664c0-1.2627803-1.0340858-2.4107623-2.4128668-2.4107623-1.2638826 0-2.4128668 1.0331838-2.4128668 2.4107623v46.9524664c0 1.3775784 1.0340857 2.4107623 2.4128668 2.4107623z" stroke="#B0EAEA" stroke-width=".575"></path>
    <path d="M408.693679 129.4923765v36.735426" stroke="#C1F2F4" stroke-width=".575"></path>
    <g fill-rule="nonzero">
      <path d="M438.5672689 97.2340811l-10.5706546-.1147982c-2.18306998-18.9417041 2.06817156-37.9982063 4.25124153-46.26367716.45959368-1.72197309 2.75756208-2.0663677 3.67674944-.57399103 1.95327313 2.98475337 4.94063203 7.69147982 7.92799093 13.54618839l-7.123702 4.1327354h9.1918736c8.9620767 18.7121076 17.1198646 46.2636771 1.9532731 67.1569507-11.489842-8.2654709-17.00496611-20.6636772-19.18803608-33.5210763l9.88126408-4.3623318z" fill="#2FCFB3"></path>
      <path d="M442.8185105 96.5452918c.5744921 3.4439462 3.2171557 26.7479821 4.5959368 38.1130045-3.3320542-2.4107623-6.0896163-5.1659193-8.5024831-8.2654708-1.8383747-2.4107624-3.44695261-4.8215247-4.59593681-7.232287v-.1147982c10.68555301 11.2502242 8.50248311-22.5004485 8.50248311-22.5004485z" fill="#13BA9A"></path>
    </g>
    <g fill-rule="nonzero">
      <path d="M478.6668175 102.6295969l5.744921 9.1838565c-5.2853273 4.8215247-12.868623 8.0358744-23.20948082 8.6098655 4.25124153-24.5668162 13.21331832-48.7892377 25.85214442-72.6672646 1.2638827-2.29596413 4.5959368-1.8367713 5.1704289.68878924.804289 3.32914798 1.8383748 7.69147986 2.5277653 12.62780266l-10.8004515 7.8062781 11.3749436-3.6735426c.3446952 2.7551569.5744921 5.6251121.6893905 8.4950672l-5.9747178 2.0663677 5.9747178 1.0331839c.1148984 10.3318386-1.4936795 21.1228699-7.0088036 29.3883408l-10.3408578-3.5587444z" fill="#2FCFB3"></path>
      <path d="M461.20225768 120.4233189c2.41286682-13.890583 6.31941309-27.7811659 11.60474042-41.4421525h.6893905s-11.26004514 42.7049327 8.5024831 34.7838565c-5.0555305 3.7883408-11.83453727 6.1991031-20.79661402 6.658296z" fill="#13BA9A"></path>
    </g>
    <path d="M442.5887136 97.0044848s11.2600452 79.7847532 17.234763 157.9623322" stroke="#13BA9A" stroke-width=".575"></path>
    <path d="M478.0923253 66.3533637s-22.5200902 43.967713-24.5882618 120.7677133" stroke="#13BA9A" stroke-width=".575" stroke-linecap="round"></path>
    <g fill-rule="nonzero">
      <path d="M475.909255 167.7201795l13.7878104.8035875c.8042889-1.7219731 1.4936795-3.5587444 2.0681716-5.5103139l-6.7790068-2.0663677 7.4683973-.3443947c2.6426636-12.1686098.6893905-26.05919279-.804289-33.52107619-.4595936-2.06636772-3.1022573-2.52556054-4.1363431-.68878924-11.0302483 18.71210763-19.18803609 37.88340803-23.55417604 57.51390133 9.30677204-.1147982 15.85598194-2.8699551 20.33702034-7.3470852l-8.3875847-8.8394619z" fill="#2FCFB3"></path>
      <path d="M473.6112866 155.7811661l-1.83837469 2.0663677c-3.4469526 8.6098655-6.08961625 17.3345291-8.0428894 26.0591928 4.71083522 0 8.73227992-.8035874 12.17923249-2.0663677-9.65146724-2.9847534-2.2979684-26.0591928-2.2979684-26.0591928z" fill="#13BA9A"></path>
    </g>
    <g fill-rule="nonzero">
      <path d="M433.5117384 156.2403595l-13.78781035.8035875c-.80428893-1.7219731-1.49367945-3.5587444-2.06817155-5.5103139l6.77900677-2.0663677-7.46839729-.3443947c-2.64266366-12.1686098-.68939052-26.05919279.80428894-33.52107619.45959368-2.06636772 3.10225733-2.52556054 4.13634311-.68878924 11.03024827 18.71210763 19.18803607 37.88340803 23.55417607 57.51390133-9.306772-.1147982-15.8559819-2.8699551-20.3370203-7.3470852l8.3875846-8.8394619z" fill="#2FCFB3"></path>
      <path d="M435.6948084 144.3013461l1.8383747 2.0663677c3.4469526 8.6098655 6.0896163 17.3345291 8.0428894 26.0591928-4.7108352 0-8.7322799-.8035874-12.1792325-2.0663677 9.6514673-2.9847534 2.2979684-26.0591928 2.2979684-26.0591928z" fill="#13BA9A"></path>
    </g>
    <path d="M480.3902937 140.0538121s-22.175395 38.4573989-22.7498871 87.8206279m-28.8395034-100.5632287s20.796614 37.7686097 29.2990971 107.3363227" stroke="#13BA9A" stroke-width=".575"></path>
    <path fill="#FFF" fill-rule="nonzero" d="M424.09006801 254.966817h70.66252819l5.744921-13.431391h-82.15237018z"></path>
    <path fill="#C1F2F4" fill-rule="nonzero" d="M110.887317 174.1669031H96.8697098v-65.2053812h14.0176072zm-27.3288191 0H69.5408907v-65.2053812h14.0176072zm-35.72800962-.0625665h-14.0176072v-52.1183857h14.0176072z"></path>
    <path fill="#B0EAEA" fill-rule="nonzero" d="M120.9536808 174.1043366h-9.99616253v-52.1183857h9.99616253zm26.97168664-2.32273473l-13.750928 3.26319544-13.59804224-57.30140995 13.750928-3.26319544zm-88.98588425 3.01085504l-10.34492518-1.52026701 10.5157457-71.55624749 10.3449252 1.52026702zm38.03328911-.62360267H82.9551651v-78.9811659h14.0176072z"></path>
    <path d="M96.9742666 101.25201779H82.9566594m14.0176072 3.09955161H82.9566594" stroke="#C1F2F4" stroke-width=".575"></path>
    <path d="M47.7977429 126.1632286H33.8950341m13.9027088 3.3291479H33.8950341m13.9027088 3.2143498H33.8950341m13.9027088 3.2143498H33.8950341m13.9027088 3.2143498H33.8950341m13.9027088 3.3291479H33.8950341m13.9027088 3.2143498H33.8950341m13.9027088 3.2143498H33.8950341m13.9027088 3.329148H33.8950341m13.9027088 3.2143498H33.8950341m13.9027088 3.2143497H33.8950341m13.9027088 3.2143498H33.8950341m13.9027088 3.329148H33.8950341m13.9027088 3.2143498H33.8950341" stroke="#B0EAEA" stroke-width=".575"></path>
    <path d="M96.9742666 164.3910312H82.9566594m14.0176072 2.9847534H82.9566594" stroke="#C1F2F4" stroke-width=".575"></path>
    <path d="M103.9830702 167.3757846c1.2638826 0 2.4128668-1.0331839 2.4128668-2.4107623v-46.9524664c0-1.2627803-1.0340857-2.4107623-2.4128668-2.4107623-1.2638826 0-2.4128668 1.0331838-2.4128668 2.4107623v46.9524664c0 1.3775784 1.0340858 2.4107623 2.4128668 2.4107623z" stroke="#B0EAEA" stroke-width=".575"></path>
    <path d="M115.9325059 129.4923765v36.735426" stroke="#C1F2F4" stroke-width=".575"></path>
    <path fill="#C1F2F4" fill-rule="nonzero" d="M290.275232 174.1669031h-14.0176072v-65.2053812h14.0176072zm-27.328819 0h-14.0176072v-65.2053812h14.0176072zm-86.0003194 0h-9.76636569v-65.2053812h9.76636569z"></path>
    <path fill="#C1F2F4" fill-rule="nonzero" d="M167.5268371 174.1077818h-11.9494357V130.254867h11.9494357zm59.6915661-.0034452H213.200796v-52.1183857h14.0176072z"></path>
    <path fill="#B0EAEA" fill-rule="nonzero" d="M300.226698 174.1043366h-9.99616253v-52.1183857h9.99616253zm27.08233144-2.3253866l-13.750928 3.26319544-13.59804223-57.30140995 13.750928-3.26319544zm-88.98535474 3.00760748l-10.34492518-1.52026702 10.51574571-71.55624748 10.34492518 1.52026701zm38.0370123-.61770324h-14.0176072v-78.9811659h14.0176072zm-62.5482853-.04741264h-9.53656885v-63.2538117h9.53656885z"></path>
    <path d="M276.3307 101.25201779h-14.017608m14.017608 3.09955161h-14.017608" stroke="#C1F2F4" stroke-width=".575"></path>
    <path d="M227.2690743 126.1632286H213.251467m14.0176073 3.3291479H213.251467m14.0176073 3.2143498H213.251467m14.0176073 3.2143498H213.251467m14.0176073 3.2143498H213.251467m14.0176073 3.3291479H213.251467m14.0176073 3.2143498H213.251467m14.0176073 3.2143498H213.251467m14.0176073 3.329148H213.251467m14.0176073 3.2143498H213.251467m14.0176073 3.2143497H213.251467m14.0176073 3.2143498H213.251467m14.0176073 3.329148H213.251467m14.0176073 3.2143498H213.251467" stroke="#B0EAEA" stroke-width=".575"></path>
    <path d="M276.3307 164.3910312h-14.017608m14.017608 2.9847534h-14.017608" stroke="#C1F2F4" stroke-width=".575"></path>
    <path fill="#B0EAEA" fill-rule="nonzero" d="M190.2159428 174.1043366h-14.0176072v-52.1183857h14.0176072zm-34.94624049 0h-14.0176072v-52.1183857h14.0176072z"></path>
    <path d="M190.1568846 126.1632286h-14.0176072m14.0176072 1.9515695h-14.0176072m14.0176072 39.6053811h-14.0176072m14.0176072 1.9515695h-14.0176072" stroke="#C1F2F4" stroke-width=".575"></path>
    <path d="M283.339503 167.3757846c1.263883 0 2.412867-1.0331839 2.412867-2.4107623v-46.9524664c0-1.2627803-1.034086-2.4107623-2.412867-2.4107623-1.263882 0-2.412867 1.0331838-2.412867 2.4107623v46.9524664c0 1.3775784 1.034086 2.4107623 2.412867 2.4107623z" stroke="#B0EAEA" stroke-width=".575"></path>
    <path fill="#C1F2F4" fill-rule="nonzero" d="M204.4710445 174.1669031h-14.0176072v-65.2053812h14.0176072z"></path>
    <path d="M197.3954851 167.3757846c1.2638826 0 2.4128668-1.0331839 2.4128668-2.4107623v-46.9524664c0-1.2627803-1.0340858-2.4107623-2.4128668-2.4107623-1.2638826 0-2.4128668 1.0331838-2.4128668 2.4107623v46.9524664c.1148984 1.3775784 1.1489842 2.4107623 2.4128668 2.4107623z" stroke="#B0EAEA" stroke-width=".575"></path>
    <path d="M295.288939 129.4923765v36.735426" stroke="#C1F2F4" stroke-width=".575"></path>
    <path d="M387.437472 81.0475336H69.9731377" stroke="#C1F2F4" stroke-width="3.45"></path>
    <path fill="#C1F2F4" fill-rule="nonzero" d="M347.821991 79.3193617h-14.0176072V14.1139805h14.0176072zm-27.328819 0h-14.0176072V14.1139805h14.0176072zm-135.6104695-.10503981h-8.61738149v-72.896861h8.61738149zm49.6101515.10503981h-9.76636569V14.1139805h9.76636569z"></path>
    <path fill="#C1F2F4" fill-rule="nonzero" d="M225.073596 79.2602404h-11.9494357V35.4073256h11.9494357zm59.691568-.0035584h-14.0176072V27.1382963h14.0176072z"></path>
    <path fill="#B0EAEA" fill-rule="nonzero" d="M357.773457 79.256682h-9.99616253V27.1382963h9.99616253zm-61.9151102.67985378l-10.34492518-1.52026701 10.51574571-71.55624748 10.34492519 1.52026701zm-128.6479417-1.5315546l-10.33865174 1.55686207-10.7688751-71.51285388 10.33865176-1.55686206zm166.6970429.80153392h-14.0176072V.2253492h14.0176072zm-62.548288.0673872h-9.53656885V16.0200906H271.35916z"></path>
    <path d="M333.894808 6.42869955h-14.017607m14.017607 2.98475336h-14.017607" stroke="#C1F2F4" stroke-width=".575"></path>
    <path d="M284.718285 31.3399103h-13.902709m13.902709 3.2143498h-13.902709m13.902709 3.2143498h-13.902709m13.902709 3.3291479h-13.902709m13.902709 3.2143498h-13.902709m13.902709 3.2143498h-13.902709m13.902709 3.2143498h-13.902709m13.902709 3.329148h-13.902709m13.902709 3.2143497h-13.902709m13.902709 3.2143498h-13.902709m13.902709 3.2143498h-13.902709m13.902709 3.329148h-13.902709m13.902709 3.2143497h-13.902709m13.902709 3.2143498h-13.902709" stroke="#B0EAEA" stroke-width=".575"></path>
    <path fill="#C1F2F4" fill-rule="nonzero" d="M110.88731689 79.256682h-14.0176072V27.1382963h14.0176072z"></path>
    <path d="M110.8769755 31.3399103H96.97426668m13.90270882 3.2143498H96.97426668m13.90270882 3.2143498H96.97426668m13.90270882 3.3291479H96.97426668m13.90270882 3.2143498H96.97426668m13.90270882 3.2143498H96.97426668m13.90270882 3.2143498H96.97426668m13.90270882 3.329148H96.97426668m13.90270882 3.2143497H96.97426668m13.90270882 3.2143498H96.97426668m13.90270882 3.2143498H96.97426668m13.90270882 3.329148H96.97426668m13.90270882 3.2143497H96.97426668m13.90270882 3.2143498H96.97426668" stroke="#B0EAEA" stroke-width=".575"></path>
    <path d="M333.894808 69.4529148h-14.017607m14.017607 3.0995516h-14.017607" stroke="#C1F2F4" stroke-width=".575"></path>
    <path fill="#B0EAEA" fill-rule="nonzero" d="M247.762702 79.256682h-14.0176072V27.1382963h14.0176072zm-34.946239 0h-14.0176072V27.1382963h14.0176072z"></path>
    <path d="M247.720994 31.2251121h-14.017608m14.017608 1.9515695h-14.017608m14.017608 39.6053812h-14.017608m14.017608 2.0663677h-14.017608" stroke="#C1F2F4" stroke-width=".575"></path>
    <path d="M340.903612 72.5524664c1.263883 0 2.412867-1.0331839 2.412867-2.4107624V23.1892377c0-1.2627803-1.034086-2.4107624-2.412867-2.4107624-1.263883 0-2.412867 1.0331839-2.412867 2.4107624V70.141704c0 1.2627803 1.034086 2.4107624 2.412867 2.4107624z" stroke="#B0EAEA" stroke-width=".575"></path>
    <path fill="#C1F2F4" fill-rule="nonzero" d="M262.017803 79.3193617h-14.0176072V14.1139805h14.0176072z"></path>
    <path d="M254.959594 72.5524664c1.263883 0 2.412867-1.0331839 2.412867-2.4107624V23.1892377c0-1.2627803-1.034086-2.4107624-2.412867-2.4107624-1.263883 0-2.412867 1.0331839-2.412867 2.4107624V70.141704c0 1.2627803 1.148984 2.4107624 2.412867 2.4107624z" stroke="#B0EAEA" stroke-width=".575"></path>
    <path fill="#B0EAEA" fill-rule="nonzero" d="M198.7553088 79.3193617h-14.0176072V14.1139805h14.0176072z"></path>
    <path d="M191.7654631 72.5524664c1.2638826 0 2.4128668-1.0331839 2.4128668-2.4107624V23.1892377c0-1.2627803-1.0340858-2.4107624-2.4128668-2.4107624-1.2638827 0-2.4128668 1.0331839-2.4128668 2.4107624V70.141704c0 1.2627803 1.0340857 2.4107624 2.4128668 2.4107624zm161.0875849-1.2627803v-36.735426" stroke="#C1F2F4" stroke-width=".575"></path>
    <path fill="#C1F2F4" fill-rule="nonzero" d="M138.3357447 79.3193617h-14.0176072V14.1139805h14.0176072z"></path>
    <path fill="#B0EAEA" fill-rule="nonzero" d="M148.2872109 79.256682h-9.99616253V27.1382963h9.99616253zm-23.9807934-.05016689h-14.0176072V.22534921h14.0176072z"></path>
    <path d="M124.3200906 6.42869955h-13.9027088m13.9027088 2.98475336h-13.9027088m13.9027088 60.03946189h-13.9027088m13.9027088 3.0995516h-13.9027088" stroke="#C1F2F4" stroke-width=".575"></path>
    <path d="M131.3288942 72.5524664c1.2638826 0 2.4128668-1.0331839 2.4128668-2.4107624V23.1892377c0-1.2627803-1.0340857-2.4107624-2.4128668-2.4107624-1.2638826 0-2.4128668 1.0331839-2.4128668 2.4107624V70.141704c0 1.2627803 1.1489842 2.4107624 2.4128668 2.4107624z" stroke="#B0EAEA" stroke-width=".575"></path>
    <path d="M143.2783299 34.5542601v36.735426" stroke="#C1F2F4" stroke-width=".575"></path>
    <path fill="#B0EAEA" fill-rule="nonzero" d="M176.6956164 79.256682h-9.99616253V27.1382963h9.99616253z"></path>
    <path d="M171.773138 34.5542601v36.735426" stroke="#C1F2F4" stroke-width=".575"></path>
    <path d="M307.353273 178.970404h97.089165c17.234763 0 31.137472 13.890583 31.137472 31.110313v44.656503H276.215801v-44.656503c0-17.104932 13.902709-31.110313 31.137472-31.110313z" fill="#2FCFB3" fill-rule="nonzero"></path>
    <path d="M297.357111 183.67713c2.642663-8.95426 8.962076-16.301345 17.349661-20.548879 10.91535-5.625112 25.047856-18.482511 20.911512-47.296861l9.996163-6.543498s4.481038 26.747982 38.950564 40.064574c10.800452 4.132736 19.64763 12.16861 24.818059 22.500449 9.651467 18.941704 23.094582 50.281614 26.19684 82.884305h-29.069301l2.872461-8.609866-16.775169-33.061883c1.493679 8.495067 2.412866 18.712107 2.18307 30.07713-.114899 4.017937-.344696 7.806278-.804289 11.479821h-105.47675c0 .114798-2.642663-32.0287 8.847179-70.945292z" fill="#F46C69" fill-rule="nonzero"></path>
    <path d="M137.763205 112.502242s-2.757562 9.413453-19.762528 14.464574l18.498646 20.204484s-1.953273-16.875336 8.962077-26.288789l-7.698195-8.380269z" fill="#FCB19F" fill-rule="nonzero"></path>
    <path d="M326.886005 132.247534c-7.583296 1.147982-14.706998 2.984753-21.256208 5.395515-4.940632-7.691479-8.157788-17.219731-8.73228-27.781166-1.49368-26.5183852 14.247404-49.0188337 35.158916-50.1668157 20.911513-1.1479821 39.065463 19.4008968 40.559143 45.9192827.574492 10.446637-1.49368 20.319282-5.515125 28.469955-11.489842-3.21435-25.507449-4.132735-40.214446-1.836771z" fill="#8E4300" fill-rule="nonzero"></path>
    <path d="M138.452596 131.443946c-1.723476-6.658296-3.561851-10.791031-4.710835-12.972197 3.217155-3.21435 4.021444-5.854709 4.021444-5.854709l6.893906 7.461884.804289.918385c-3.446953 2.984754-5.630023 6.658296-7.008804 10.446637z" fill="#F79F8D" fill-rule="nonzero"></path>
    <path d="M352.278555 88.509417s9.996163 8.9542601 7.123702 18.712108c-2.87246 9.872645-7.008803 16.990134 2.987359 25.6-6.664108-1.377579-13.902709-2.066368-21.600903-1.836772l-5.974718-35.81704 17.46456-6.658296z" fill="#7F3900" fill-rule="nonzero"></path>
    <path d="M322.634763 157.962332c1.034086 1.951569 2.18307 3.788341 3.332054 5.510314 4.36614 6.543497 11.834537 10.446637 19.762528 10.446637 6.664109 0 12.983522-2.640359 17.694357-7.576682 5.974718-6.199103 12.868623-11.824215 17.694357-15.38296 0 0 1.263882-.918385 2.642663-1.951569" stroke="#EA5959" stroke-width=".575"></path>
    <path d="M330.792551 160.258296c-1.378781-1.95157-2.642664-4.132735-3.906546-6.658296 6.664108-7.69148 11.374943-19.515695 8.732279-37.883408l9.996163-6.543498s3.906546 23.07444 32.056659 36.965023c-5.05553 3.78834-12.179232 9.528251-18.383747 16.071748-8.157788 8.609866-22.060497 7.806278-28.494808-1.951569z" fill="#B17400" fill-rule="nonzero"></path>
    <path d="M329.643567 150.041256c5.05553-7.69148 8.272686-18.59731 5.974717-34.209866l9.996163-6.543498s.804289 4.821525 4.36614 11.365023c-1.723476.688789-4.595937 2.066368-6.664108 4.936323-4.021445 5.280717-1.838375 10.676233-5.400226 16.875336-1.148984 2.066368-3.446953 5.051121-8.272686 7.576682z" fill="#A36400" fill-rule="nonzero"></path>
    <path d="M305.055305 94.1345291c-4.136343-11.5946188 1.493679-24.4520179 13.09842-29.1587443 10.685553-4.2475337 22.634988 0 28.265011 9.6430493 0 0 20.796614 31.3399099-9.536569 51.3147979-2.87246 1.95157-6.664108 1.836772-9.536569-.114798-5.859819-4.017937-15.626185-13.086995-22.290293-31.6843049z" fill="#B17400" fill-rule="nonzero"></path>
    <path d="M173.726411 98.2672646c3.791648-10.561435-1.378781-22.270852-11.834537-26.4035875-9.651468-3.903139-20.566818 0-25.737246 8.7246637 0 0-18.843341 28.4699552 8.617381 46.6080722 2.642664 1.721973 6.089616 1.607174 8.617382-.114799 5.400225-3.673542 14.247404-11.939013 20.33702-28.8143494z" fill="#FCB19F" fill-rule="nonzero"></path>
    <path d="M319.762302 100.678027s.344696 6.658296 3.791648 14.120179l5.630023-2.295964" stroke="#A36400" stroke-width=".8625" stroke-linecap="round" stroke-linejoin="round"></path>
    <ellipse fill="#0D2451" fill-rule="nonzero" transform="rotate(-41.814 328.600852 101.830038)" cx="328.600852" cy="101.830038" rx="1" ry="1.3775516"></ellipse>
    <ellipse fill="#0D2451" fill-rule="nonzero" transform="rotate(-41.814 316.307525 106.750611)" cx="316.307525" cy="106.750611" rx="1" ry="1.3775516"></ellipse>
    <path d="M329.643567 112.61704l-6.319414 2.525561c-.114898 0 4.825734 3.558744 6.319414-2.525561z" fill="#A36400" fill-rule="nonzero"></path>
    <path d="M334.813995 116.060987l-7.92799 5.165919c-.114899 0 7.2386 3.099551 7.92799-5.165919z" fill="#FFF" fill-rule="nonzero"></path>
    <path d="M401.225282 196.190135l-1.148984 31.569506-7.468397-14.69417c1.493679 8.495067 2.412866 18.712107 2.18307 30.07713-.114899 4.017937-.344696 7.806278-.804289 11.479821h-14.247404c-.919188-3.099552-1.838375-7.921077-1.148985-13.546189 1.034086-8.265471 4.940633-12.283408 6.893906-17.449327 2.18307-5.854709 2.757562-15.38296-5.744921-30.651121 7.123702 1.147982 14.247404 2.181166 21.486004 3.21435z" fill="#EA5959" fill-rule="nonzero"></path>
    <path d="M401.225282 186.202691c.919188 1.377578 2.872461 7.00269 3.561851 8.380269 4.825734 9.413453 15.051693-.918386 19.992325 13.201793 5.055531 14.349776 9.191874 30.536323 10.800452 46.952467h-29.069301c-2.527765-10.102242-7.468397-22.156054-12.523927-33.176682-8.04289-17.449327 4.710835-29.043946 4.710835-29.043946l2.527765-6.313901z" fill="#B17400" fill-rule="nonzero"></path>
    <path d="M391.91851 215.361435l15.970881-17.219731c5.285327 2.869955 12.868623-1.836771 16.890067 9.757848 3.332054 9.413452 6.204515 19.630493 8.272686 30.191928-2.412866-8.609866-9.191873-15.153363-17.579458-16.990135-10.570654-2.410762-18.613544 3.673543-19.762528 4.591929-.574492-1.262781-1.148984-2.640359-1.723476-3.903139-1.034086-2.410763-1.608578-4.477131-2.068172-6.4287z" fill="#A36400" fill-rule="nonzero"></path>
    <path d="M393.986682 221.560538c-8.04289-17.449327-16.430474-32.258296-16.430474-32.258296l29.299097-21.696861c.919187 1.377579 1.723476 2.755157 2.412867 4.247534 4.825733 9.413453 10.455756 21.811659 15.396388 35.931838-5.744921 4.017938-16.200677 10.102243-30.677878 13.775785z" fill="#F46C69" fill-rule="nonzero"></path>
    <path d="M291.841986 206.981166c14.936795 8.150673 20.566818-7.461883 20.566818-7.461883l-2.987359 14.464574-10.570655 9.069058-7.008804-16.071749z" fill="#EA5959" fill-rule="nonzero"></path>
    <path fill="#1490ED" fill-rule="nonzero" d="M134.316253 194.008969h56.989616l15.626185 34.669058H149.82754z"></path>
    <path d="M291.841986 206.981166c8.617382 7.232287 17.46456 7.117489 17.46456 7.117489l-6.319413 40.753363h-14.592099c.114898-.114798-1.49368-20.204484 3.446952-47.870852z" fill="#B17400" fill-rule="nonzero"></path>
    <path d="M291.267494 210.654709c.229797-1.262781.459594-2.410763.574492-3.673543 8.617382 7.232287 17.46456 7.117489 17.46456 7.117489l-6.319413 40.753363.459594-22.270852c.229797-9.069058-4.481039-17.449327-12.179233-21.926457z" fill="#A36400" fill-rule="nonzero"></path>
    <path d="M424.779458 207.784753c-3.102257 2.181166-7.583295 4.936323-13.328216 7.576682-6.319414-6.199103-2.757563-12.857399 1.034085-19.86009 3.332054-6.084305-.459593-17.334529-1.493679-20.43408 4.36614 8.95426 9.42167 20.089686 13.78781 32.717488z" fill="#EA5959" fill-rule="nonzero"></path>
    <path d="M298.85079 254.73722s-19.417833-75.078027-35.733409-105.155157l-2.527765 8.495067s6.089617 63.942601 12.40903 96.430493l25.852144.229597z" fill="#B17400" fill-rule="nonzero"></path>
    <path fill="#B17400" fill-rule="nonzero" d="M263.117381 149.582063l-4.481038-5.739911-1.723476 4.247534 5.744921 6.773094z"></path>
    <path d="M422.596388 201.815247s-17.46456 11.939013-31.367268 13.775784" stroke="#EA5959" stroke-width=".575" stroke-linecap="round"></path>
    <path d="M292.990971 201.356054s9.191873 7.69148 17.694356 6.658296" stroke="#EA5959" stroke-width=".575"></path>
    <path d="M257.832054 153.1408076c-.2297968-.2295964-.3446952-.4591928-.4595936-.6887892l-7.927991-23.8780269c-.3446953-1.03318385.2297968-2.18116592 1.2638826-2.52556054 1.0340858-.34439461 2.18307.22959642 2.5277653 1.26278027l7.9279909 23.87802687c.3446953 1.0331839-.2297968 2.181166-1.2638826 2.5255606-.8042889.1147982-1.6085779-.1147982-2.0681716-.5739911z" fill="#B17400" fill-rule="nonzero"></path>
    <path d="M257.832054 153.1408076c-.1148984-.1147982-.2297968-.2295964-.2297968-.3443946l-18.84334085-29.96233181c-.5744921-.91838565-.34469526-2.18116592.5744921-2.75515695.91918736-.57399103 2.18306998-.34439462 2.75756208.57399103l18.84334087 29.96233183c.5744921.9183857.3446952 2.1811659-.5744921 2.755157-.9191874.573991-1.9532732.3443946-2.5277653-.2295965z" fill="#B17400" fill-rule="nonzero"></path>
    <path d="M257.832054 153.1408076l-24.5882618-25.59999995c-.80428894-.80358745-.68939052-2.06636772 0-2.75515695.80428894-.80358745 2.06817156-.68878924 2.75756208 0l24.58826182 25.4852018c.804289.8035874.6893905 2.0663677 0 2.7551569-.8042889.9183857-2.0681715.8035875-2.7575621.1147982z" fill="#B17400" fill-rule="nonzero"></path>
    <path d="M260.7045145 150.3856507c-5.2853273-5.5103139-14.1325056-5.7399103-19.64762975-.3443946-2.52776524 2.5255605-4.13634312 5.8547085-4.25124154 9.4134529 0 1.0331838.80428894 2.0663677 1.83837472 2.0663677s2.06817156-.8035874 2.06817156-1.8367713c.11489842-2.5255605 1.1489842-4.9363229 3.10225731-6.7730942 4.0214447-3.7883408 10.3408578-3.6735426 14.1325057.2295964l2.757562-2.7551569z" fill="#B17400" fill-rule="nonzero"></path>
    <path fill="#F5A73B" fill-rule="nonzero" d="M254.99116317 179.60387119l-5.03884722-.41122085 3.38027525-41.4198127 5.03884722.41122085z"></path>
    <path fill="#FFFAF5" fill-rule="nonzero" d="M258.4323186 138.23058424l-5.03884722-.41122085.18675554-2.28838744 5.03884722.41122085z"></path>
    <path fill="#F46C69" fill-rule="nonzero" d="M258.53605935 135.98121365l-5.03884722-.41122085.34549775-4.23351677 5.03884721.41122085z"></path>
    <path d="M256.79796829 138.102243l-3.44695259 41.4421525m1.72347629-41.55695071L251.6275394 179.314799" stroke="#EF9B35" stroke-width=".575"></path>
    <path fill="#FFFAF5" fill-rule="nonzero" d="M251.97223466 185.8582968l-1.95327314-6.658296 5.05553047.4591929z"></path>
    <path fill="#0D2451" fill-rule="nonzero" d="M251.0530473 182.5291488l2.41286682.2295964-1.49367946 3.0995516z"></path>
    <path d="M260.7045145 150.3856507l-2.8724605 2.7551569c3.7916479 4.0179373 3.6767495 10.3318386-.2297968 14.1201794-1.8383747 1.8367713-4.3661399 2.755157-6.8939052 2.755157-1.0340858 0-1.9532731.9183856-1.9532731 1.9515695 0 .573991.2297968 1.0331838.5744921 1.3775785.3446952.3443946.9191873.573991 1.378781.573991 3.561851 0 7.0088036-1.3775785 9.6514673-3.903139 5.4002257-5.2807175 5.6300226-14.1201794.3446952-19.6304933z" fill="#B17400" fill-rule="nonzero"></path>
    <path d="M289.658916 222.019731s5.055531 16.64574 7.468398 26.518386" stroke="#A36400" stroke-width=".575"></path>
    <path d="M137.763205 155.895964c-1.723476 17.90852-4.136343 57.743498 2.987359 98.841256H70.317833c1.378781-17.219731 4.4810383-38.113005 11.1451467-61.187444 6.6641083-23.189238 15.1665914-42.934529 23.3243793-58.661884 4.36614-8.495067 15.511287-10.791031 22.864785-4.706726.114899.114798.229797.229596.344696.344395 7.123702 6.199103 10.685553 15.842152 9.766365 25.370403z" fill="#FFC871" fill-rule="nonzero"></path>
    <path d="M171.313544 104.121973s-3.906546 7.806278-3.791648 15.38296l-6.089616.344394 1.723476-9.183856 8.157788-6.543498z" fill="#FCB19F" fill-rule="nonzero"></path>
    <path fill="#19A1F4" fill-rule="nonzero" d="M149.82754 228.678027l4.825733 14.120179 11.145147-14.923767zm13.902708 11.135426h68.479459c.919187 0 1.723476.803587 1.723476 1.721973 0 .918386-.804289 1.721973-1.723476 1.721973h-68.479459v-3.443946z"></path>
    <ellipse fill="#0D2451" fill-rule="nonzero" transform="rotate(-54.5 164.286403 108.387966)" cx="164.286403" cy="108.387966" rx="1.37876125" ry="1"></ellipse>
    <path d="M146.610384 198.256502l-3.906547 6.4287s12.523928 10.21704 11.030249 23.763228l1.034086-2.066367 9.076975-15.956951-17.234763-12.16861z" fill="#FFEED9" fill-rule="nonzero"></path>
    <path d="M154.653273 226.382063h56.874718c8.502483 0 16.085779 5.395515 18.843341 13.546188h-66.641084l-9.076975-13.546188z" fill="#FFF" fill-rule="nonzero"></path>
    <path fill="#FFFAF5" fill-rule="nonzero" d="M154.653273 226.382063l-.919187 2.066367.919187 2.410763 6.893905 18.023318 5.400226-7.347085zm54.232054 0c.344696-3.099552.574492-7.921076-.919187-13.546189-1.723476-7.00269-5.170429-11.939013-7.2386-14.69417h-54.117156c1.608578 1.147982 7.008803 5.280718 9.076975 13.201794 1.838375 7.232287-.229797 13.086995-1.034086 14.923767 18.039052.114798 36.193002.114798 54.232054.114798z"></path>
    <path d="M157.525734 123.752466c-.804289.68879-1.49368 1.377579-2.297969 1.836772-1.838374-2.295964-.574492-5.739911-.574492-5.739911l2.872461 3.903139z" fill="#FFF" fill-rule="nonzero"></path>
    <path fill="#FFC871" fill-rule="nonzero" d="M196.476298 254.507623v-11.250224l-65.721896-12.398206-1.49368 23.878027z"></path>
    <path d="M196.476298 243.257399h27.345824c-2.412867 2.181166-5.85982 4.706727-10.340858 6.887892-6.779007 3.21435-12.983521 4.132736-17.004966 4.362332v-11.250224z" fill="#FCB19F" fill-rule="nonzero"></path>
    <path d="M203.140406 223.052915c.114899-2.869955-.114898-6.887893-1.378781-11.479821-1.148984-4.362332-2.757562-7.69148-4.251241-10.102242m1.263882 21.582063c.114899-2.869955-.114898-6.887893-1.378781-11.479821-1.148984-4.362332-2.757562-7.69148-4.251241-10.102242m1.378781 21.582063c.114898-2.869955-.114899-6.887893-1.378781-11.479821-1.148984-4.362332-2.757562-7.69148-4.251242-10.102242m1.378781 21.582063c.114899-2.869955-.114898-6.887893-1.378781-11.479821-1.148984-4.362332-2.757562-7.69148-4.251241-10.102242m1.263882 21.582063c.114899-2.869955-.114898-6.887893-1.378781-11.479821-1.148984-4.362332-2.757562-7.69148-4.251241-10.102242m1.378781 21.582063c.114898-2.869955-.114899-6.887893-1.378781-11.479821-1.148984-4.362332-2.757562-7.69148-4.251242-10.102242m1.378781 21.582063c.114899-2.869955-.114898-6.887893-1.378781-11.479821-1.148984-4.362332-2.757562-7.69148-4.251241-10.102242m1.263882 21.582063c.114899-2.869955-.114898-6.887893-1.378781-11.479821-1.148984-4.362332-2.757562-7.69148-4.251241-10.102242m1.378781 21.582063c.114898-2.869955-.114899-6.887893-1.378781-11.479821-1.148984-4.362332-2.757562-7.69148-4.251242-10.102242m1.378781 21.582063c.114899-2.869955-.114898-6.887893-1.378781-11.479821-1.148984-4.362332-2.757562-7.69148-4.251241-10.102242" stroke="#FFEED9" stroke-width=".575" stroke-linecap="round"></path>
    <path fill="#F5A73B" fill-rule="nonzero" d="M350.00528985 254.92158562h-91.4591422v-12.8573991h91.4591422z"></path>
    <path d="M335.8480816 242.10941686V254.966816m2.6426636-12.85739914V254.966816m-70.77742661-12.85739914V254.966816m2.52776521-12.85739914V254.966816" stroke="#FFD385" stroke-width=".575"></path>
    <g fill-rule="nonzero">
      <path d="M252.31692972 242.1094165h87.66749438c.9191873 0 1.7234763-.8035874 1.7234763-1.721973 0-.9183857-.804289-1.7219731-1.7234763-1.7219731h-87.66749438c-.91918736 0-1.7234763.8035874-1.7234763 1.7219731 0 .9183856.80428894 1.721973 1.7234763 1.721973z" fill="#1490ED"></path>
      <path d="M296.2081261 238.6654704v-3.44394623s24.2435666-11.93901345 39.8697517-3.78834081v7.11748884h-39.8697517v.1147982z" fill="#FFF"></path>
      <path d="M296.2081261 238.6654704v-3.44394623s-24.2435666-11.93901345-39.86975169-3.78834081v7.11748884h39.86975169v.1147982z" fill="#FFFAF5"></path>
    </g>
    <path d="M56.0704289 178.970404c7.8130925 0 14.1325056 6.313901 14.1325056 14.120179v61.761435H56.0704289v-75.881614z" fill="#2FCFB3" fill-rule="nonzero"></path>
    <path d="M113.864334 254.966816s-8.847178-47.870852-5.744921-88.050224c0 0-7.583296 14.579372-6.664108 23.418834.919187 8.724664 4.36614 30.306726-2.5277655 42.819731-6.8939052 12.513004 4.8257335 21.696861 4.8257335 21.696861l10.111061.114798z" fill="#F5A73B" fill-rule="nonzero"></path>
    <path d="M318.153725 64.9757848c3.561851-1.3775785 7.2386-1.8367713 10.800451-1.4923767 1.034086 3.2143497 1.49368 6.5434977 1.49368 9.9874439 0 14.0053812-8.617382 26.0591928-20.796614 31.110314-1.608578-3.099552-3.102258-6.5434978-4.595937-10.4466369-4.136343-11.5946188 1.608578-24.4520179 13.09842-29.1587443z" fill="#8E4300" fill-rule="nonzero"></path>
    <path d="M323.209255 63.7130045s5.285327 34.8986547 29.528894 40.1793725l1.034086-7.1174891c1.608578-11.4798206-2.297969-23.0744395-10.455756-31.2251121l-4.251242-4.1327354-15.855982 2.2959641z" fill="#8E4300" fill-rule="nonzero"></path>
    <path d="M184.182167 76.5704036c-.344695-.1147982-.68939-.1147982-1.034086-.2295964h-.114898c-.919188-.2295964-1.723476-.3443946-2.642664-.5739911-5.974718-1.2627802-20.107223-5.051121-25.622347-11.3650224-.804289-.6887892-1.608578-1.4923767-2.527766-2.0663677-7.2386-5.1659193-16.315575-4.9363229-20.222122.573991-2.068171 2.9847534-2.297968 6.7730942-.919187 10.561435 0 0 1.608578 3.903139-1.953273 5.0511211-1.49368.4591928-2.872461 1.3775785-3.791648 2.6403587-2.18307 3.0995516-1.493679 7.4618834 1.378781 10.9058296l.114899.1147982c.344695.4591929 1.263882 2.0663678 1.034085 5.0511211-.114898.3443946-.114898.6887893-.114898 1.1479821.114898 2.5255602 2.87246 4.4771302 6.204515 4.3623322 3.332054-.114799 5.859819-2.410763 5.744921-4.9363233 0 0-.229797-1.147982.919187-1.8367713 1.034086-.4591928 1.838375-1.2627802 2.527765-2.1811659 1.148984-1.6071749 1.49368-3.4439462 1.148984-5.3955157 0 0-.459593-3.2143497 2.642664-2.6403587 0 0 9.651467 10.3318386 33.895034 10.561435 1.148984.1147982 2.297968.1147982 3.332054 0h.114898c5.85982-.5739911 10.570655-3.903139 11.719639-8.7246637 1.49368-6.5434978-3.332054-9.0690583-11.834537-11.0206278z" fill="#0D2451" fill-rule="nonzero"></path>
    <path d="M139.946275 96.7748879c-2.412866-2.8699552-3.332054-6.3139014-2.297968-9.5282511.574492-1.9515695 1.953273-3.4439462 3.561851-4.5919283 3.791648-2.6403587.344695-6.7730942.344695-6.7730942-3.102257-4.0179372-4.36614-8.7246636-2.87246-13.0869955.459593-1.4923766 1.263882-2.8699551 2.297968-4.1327354-3.676749.1147982-7.008803 1.4923767-8.962077 4.2475336-2.068171 2.9847534-2.297968 6.7730942-.919187 10.561435 0 0 1.608578 3.903139-1.953273 5.0511211-1.49368.4591928-2.872461 1.3775785-3.791648 2.6403587-2.18307 3.0995516-1.493679 7.4618834 1.378781 10.9058296l.114899.1147982c.344695.4591929 1.263882 2.0663678 1.034085 5.0511211-.114898.3443946-.114898.6887893-.114898 1.1479821.114898 2.5255602 2.87246 4.4771302 6.204515 4.3623322 3.332054-.114799 5.859819-2.410763 5.744921-4.9363233 0 0 0-.4591928.229796-1.0331838z" fill="#071D3F" fill-rule="nonzero"></path>
  </g>
</svg>